<svg width="220" height="44" viewBox="0 0 220 44" fill="none" xmlns="http://www.w3.org/2000/svg">
<path d="M0 4.88889C0 7.58894 2.06914 9.77778 4.62156 9.77778H38.8755C41.4279 9.77778 43.497 7.58894 43.497 4.88889C43.497 2.18883 41.4279 0 38.8755 0H4.62156C2.06914 0 0 2.18883 0 4.88889Z" fill="#2869FF"/>
<path d="M16.915 18.8222C16.915 16.5272 19.0789 14.6667 21.748 14.6667C24.4172 14.6667 26.5811 16.5272 26.5811 18.8222V39.8444C26.5811 42.1395 24.4172 44 21.748 44C19.0789 44 16.915 42.1395 16.915 39.8444V18.8222Z" fill="#54EAFF"/>
<path d="M54.1677 44C52.2177 44 50.4664 43.5989 48.9137 42.7969C47.3609 41.9948 46.1512 40.9062 45.2846 39.5312C44.4179 38.1562 43.9846 36.6094 43.9846 34.8906C43.9846 32.8281 44.4901 31.2049 45.5012 30.0208C46.5123 28.7986 48.1553 27.9392 50.4303 27.4427C52.7052 26.908 55.7206 26.6406 59.4759 26.6406H62.3466V31.1094H59.53C57.6884 31.1094 56.1897 31.2239 55.0343 31.4531C53.9147 31.6441 53.1024 31.9878 52.5969 32.4844C52.1274 32.9809 51.8927 33.6684 51.8927 34.5469C51.8927 35.6163 52.2358 36.4948 52.9219 37.1823C53.6439 37.8698 54.6731 38.2135 56.0093 38.2135C57.0563 38.2135 57.9771 37.9653 58.7717 37.4687C59.6021 36.934 60.2521 36.2274 60.7217 35.349C61.1913 34.4323 61.4258 33.401 61.4258 32.2552V25.6667C61.4258 23.9861 61.0646 22.8021 60.3425 22.1146C59.6205 21.3889 58.3926 21.026 56.6593 21.026C55.6843 21.026 54.6189 21.1597 53.4635 21.4271C52.3441 21.6562 51.0983 22.0573 49.7261 22.6302C48.9317 23.0122 48.2275 23.1076 47.6137 22.9167C46.9998 22.6875 46.5304 22.3055 46.2054 21.7708C45.8804 21.1979 45.7179 20.5868 45.7179 19.9375C45.7179 19.25 45.8984 18.6007 46.2596 17.9896C46.6207 17.3403 47.2165 16.8628 48.047 16.5573C49.7442 15.8316 51.3331 15.3351 52.8136 15.0677C54.3302 14.8003 55.7206 14.6667 56.9843 14.6667C59.7646 14.6667 62.0395 15.1059 63.8091 15.9844C65.6144 16.8247 66.9686 18.1424 67.8715 19.9375C68.7744 21.6945 69.2256 23.967 69.2256 26.7552V39.4739C69.2256 40.8872 68.9006 41.9757 68.2506 42.7396C67.6007 43.5034 66.662 43.8854 65.4341 43.8854C64.2061 43.8854 63.2496 43.5034 62.5633 42.7396C61.9133 41.9757 61.5883 40.8872 61.5883 39.4739V37.3542L61.9675 37.6979C61.7508 38.9965 61.2812 40.1232 60.5592 41.0781C59.8729 41.9948 58.9884 42.7205 57.9051 43.2552C56.8218 43.7517 55.576 44 54.1677 44ZM79.4434 43.8854C78.1072 43.8854 77.078 43.5034 76.356 42.7396C75.6698 41.9757 75.3269 40.8872 75.3269 39.4739V19.1354C75.3269 17.7222 75.6698 16.6528 76.356 15.9271C77.078 15.1632 78.0714 14.7812 79.3351 14.7812C80.6351 14.7812 81.6279 15.1632 82.3142 15.9271C83.0005 16.6528 83.3433 17.7222 83.3433 19.1354V22.401L82.7475 20.5104C83.5779 18.6389 84.8058 17.2066 86.4308 16.2135C88.092 15.1823 89.9694 14.6667 92.0639 14.6667C94.1943 14.6667 95.946 15.1059 97.318 15.9844C98.69 16.8247 99.7191 18.1232 100.405 19.8802C101.092 21.5989 101.435 23.7951 101.435 26.4687V39.4739C101.435 40.8872 101.073 41.9757 100.351 42.7396C99.665 43.5034 98.6542 43.8854 97.318 43.8854C96.018 43.8854 95.0067 43.5034 94.2847 42.7396C93.5985 41.9757 93.2556 40.8872 93.2556 39.4739V26.8698C93.2556 24.9219 92.9127 23.5278 92.2264 22.6875C91.5765 21.809 90.5652 21.3698 89.1932 21.3698C87.4599 21.3698 86.0695 21.9427 85.0225 23.0885C84.0112 24.2344 83.5058 25.7622 83.5058 27.6719V39.4739C83.5058 42.4149 82.1517 43.8854 79.4434 43.8854ZM120.323 44C117.471 44 114.979 43.408 112.849 42.2239C110.754 41.0399 109.129 39.3403 107.974 37.125C106.818 34.9097 106.24 32.2934 106.24 29.276C106.24 27.0226 106.565 24.9982 107.215 23.2031C107.865 21.408 108.804 19.8802 110.032 18.6198C111.296 17.3212 112.794 16.3472 114.528 15.6979C116.261 15.0104 118.193 14.6667 120.323 14.6667C123.176 14.6667 125.649 15.2587 127.744 16.4427C129.874 17.6267 131.518 19.3073 132.673 21.4844C133.865 23.6614 134.461 26.2587 134.461 29.276C134.461 31.5677 134.118 33.6111 133.431 35.4062C132.781 37.2014 131.843 38.7482 130.615 40.0469C129.387 41.3455 127.889 42.3385 126.119 43.026C124.386 43.6753 122.454 44 120.323 44ZM120.323 37.526C121.515 37.526 122.544 37.2205 123.411 36.6094C124.277 35.9982 124.964 35.1007 125.469 33.9167C125.974 32.6945 126.227 31.1476 126.227 29.276C126.227 26.4878 125.686 24.4445 124.602 23.1458C123.519 21.809 122.093 21.1406 120.323 21.1406C119.168 21.1406 118.139 21.4271 117.236 22C116.369 22.5729 115.683 23.4705 115.178 24.6927C114.708 25.8767 114.474 27.4045 114.474 29.276C114.474 32.0642 115.015 34.1458 116.098 35.5208C117.182 36.8576 118.59 37.526 120.323 37.526ZM152.382 44C149.493 44 146.966 43.408 144.799 42.2239C142.669 41.0017 141.025 39.283 139.87 37.0677C138.715 34.8524 138.137 32.2361 138.137 29.2187C138.137 26.9653 138.462 24.9409 139.112 23.1458C139.762 21.3507 140.7 19.8229 141.928 18.5625C143.192 17.3021 144.708 16.3472 146.478 15.6979C148.248 15.0104 150.215 14.6667 152.382 14.6667C153.502 14.6667 154.693 14.8195 155.957 15.125C157.221 15.3924 158.466 15.8698 159.694 16.5573C160.416 16.901 160.904 17.3976 161.157 18.0469C161.446 18.658 161.554 19.3073 161.482 19.9948C161.41 20.6441 161.175 21.2361 160.778 21.7708C160.416 22.2674 159.947 22.6111 159.369 22.8021C158.791 22.9549 158.141 22.8403 157.419 22.4583C156.733 22.0382 156.011 21.7326 155.253 21.5417C154.531 21.3507 153.845 21.2552 153.195 21.2552C152.111 21.2552 151.154 21.4462 150.324 21.8281C149.493 22.1719 148.789 22.6875 148.211 23.375C147.67 24.0243 147.236 24.8455 146.911 25.8385C146.623 26.8316 146.478 27.9774 146.478 29.276C146.478 31.7969 147.056 33.783 148.211 35.2344C149.403 36.6476 151.064 37.3542 153.195 37.3542C153.845 37.3542 154.531 37.2778 155.253 37.125C155.975 36.934 156.697 36.6284 157.419 36.2083C158.141 35.8264 158.791 35.7309 159.369 35.9219C159.947 36.1128 160.398 36.4757 160.723 37.0104C161.085 37.507 161.283 38.0989 161.319 38.7864C161.391 39.4357 161.283 40.0851 160.994 40.7344C160.741 41.3455 160.272 41.8229 159.586 42.1667C158.358 42.8159 157.131 43.2743 155.903 43.5417C154.675 43.8472 153.502 44 152.382 44ZM179.115 44C175.973 44 173.265 43.408 170.99 42.2239C168.751 41.0017 167.018 39.3021 165.79 37.125C164.598 34.9097 164.003 32.3125 164.003 29.3333C164.003 26.4305 164.58 23.8906 165.736 21.7135C166.891 19.4982 168.498 17.7795 170.557 16.5573C172.651 15.2969 175.016 14.6667 177.652 14.6667C179.566 14.6667 181.299 15.0104 182.852 15.6979C184.405 16.3472 185.741 17.3021 186.86 18.5625C187.98 19.7847 188.828 21.2934 189.406 23.0885C189.984 24.8455 190.273 26.8125 190.273 28.9896C190.273 29.7153 190.056 30.2691 189.623 30.651C189.189 30.9948 188.557 31.1667 187.727 31.1667H170.719V26.6979H184.369L183.502 27.5C183.502 25.934 183.285 24.6354 182.852 23.6042C182.419 22.5347 181.787 21.7326 180.956 21.1979C180.162 20.6632 179.169 20.3958 177.977 20.3958C176.641 20.3958 175.503 20.7205 174.565 21.3698C173.626 22.0191 172.904 22.9549 172.398 24.1771C171.893 25.3993 171.64 26.8698 171.64 28.5885V29.0469C171.64 31.9497 172.272 34.0885 173.536 35.4635C174.836 36.8385 176.749 37.526 179.277 37.526C180.144 37.526 181.137 37.4114 182.256 37.1823C183.376 36.9531 184.423 36.5903 185.398 36.0937C186.228 35.6736 186.969 35.5399 187.619 35.6927C188.269 35.8073 188.774 36.1128 189.135 36.6094C189.496 37.1059 189.695 37.6788 189.731 38.3281C189.803 38.9774 189.677 39.6267 189.352 40.276C189.027 40.8872 188.485 41.4028 187.727 41.8229C186.499 42.5486 185.109 43.0833 183.556 43.4271C182.04 43.809 180.559 44 179.115 44ZM208.842 44C205.701 44 202.992 43.408 200.717 42.2239C198.478 41.0017 196.745 39.3021 195.518 37.125C194.326 34.9097 193.73 32.3125 193.73 29.3333C193.73 26.4305 194.307 23.8906 195.463 21.7135C196.619 19.4982 198.226 17.7795 200.284 16.5573C202.378 15.2969 204.743 14.6667 207.38 14.6667C209.293 14.6667 211.027 15.0104 212.58 15.6979C214.132 16.3472 215.468 17.3021 216.588 18.5625C217.707 19.7847 218.556 21.2934 219.134 23.0885C219.711 24.8455 220 26.8125 220 28.9896C220 29.7153 219.784 30.2691 219.35 30.651C218.917 30.9948 218.285 31.1667 217.454 31.1667H200.447V26.6979H214.096L213.23 27.5C213.23 25.934 213.013 24.6354 212.58 23.6042C212.146 22.5347 211.514 21.7326 210.684 21.1979C209.889 20.6632 208.896 20.3958 207.705 20.3958C206.368 20.3958 205.231 20.7205 204.292 21.3698C203.353 22.0191 202.631 22.9549 202.126 24.1771C201.62 25.3993 201.367 26.8698 201.367 28.5885V29.0469C201.367 31.9497 201.999 34.0885 203.263 35.4635C204.563 36.8385 206.477 37.526 209.005 37.526C209.871 37.526 210.864 37.4114 211.984 37.1823C213.103 36.9531 214.15 36.5903 215.125 36.0937C215.956 35.6736 216.696 35.5399 217.346 35.6927C217.996 35.8073 218.501 36.1128 218.863 36.6094C219.223 37.1059 219.422 37.6788 219.459 38.3281C219.531 38.9774 219.404 39.6267 219.079 40.276C218.754 40.8872 218.213 41.4028 217.454 41.8229C216.227 42.5486 214.836 43.0833 213.284 43.4271C211.767 43.809 210.286 44 208.842 44Z" fill="black"/>
</svg>
