<svg width="1139" height="106" viewBox="0 0 1139 106" fill="none" xmlns="http://www.w3.org/2000/svg">
<path d="M620.204 104V43.583C620.204 37.281 620.752 27.828 621.026 21.526H620.478C617.875 27.28 615.135 33.034 612.258 38.651L598.695 61.119H652.673V78.244H577.186V62.9L613.765 2.20898H641.165V104H620.204Z" fill="#4A4A4A"/>
<path d="M502.985 104V85.916H524.768V25.088H506.136V11.251C516.822 9.19598 523.809 6.59299 530.659 2.20898H547.099V85.916H565.868V104H502.985Z" fill="#4A4A4A"/>
<path d="M469.024 105.918C461.215 105.918 455.461 99.753 455.461 91.67C455.461 83.724 461.215 77.559 469.024 77.559C476.833 77.559 482.587 83.724 482.587 91.67C482.587 99.753 476.833 105.918 469.024 105.918Z" fill="#4A4A4A"/>
<path d="M369.479 104V91.259C395.92 67.284 412.634 48.515 412.634 33.308C412.634 23.718 407.428 17.964 398.523 17.964C391.262 17.964 385.645 22.759 380.576 28.239L368.383 16.046C377.973 5.63398 387.289 0.427979 401.4 0.427979C420.854 0.427979 434.143 12.895 434.143 32.075C434.143 50.159 418.936 69.613 401.948 86.464C407.154 85.779 413.867 85.231 418.662 85.231H438.801V104H369.479Z" fill="#4A4A4A"/>
<path d="M292.401 104V85.916H314.184V25.088H295.552V11.251C306.238 9.19598 313.225 6.59299 320.075 2.20898H336.515V85.916H355.284V104H292.401Z" fill="#4A4A4A"/>
<path d="M264.014 105.456C258.086 105.456 253.718 100.776 253.718 94.64C253.718 88.608 258.086 83.928 264.014 83.928C269.942 83.928 274.31 88.608 274.31 94.64C274.31 100.776 269.942 105.456 264.014 105.456Z" fill="#4A4A4A"/>
<path d="M218.918 104V58.136C218.918 53.352 219.334 46.176 219.542 41.392H219.126C217.15 45.76 215.07 50.128 212.886 54.392L202.59 71.448H243.566V84.448H186.262V72.8L214.03 26.728H234.83V104H218.918Z" fill="#4A4A4A"/>
<path d="M126.087 104V94.328C146.159 76.128 158.847 61.88 158.847 50.336C158.847 43.056 154.895 38.688 148.135 38.688C142.623 38.688 138.359 42.328 134.511 46.488L125.255 37.232C132.535 29.328 139.607 25.376 150.319 25.376C165.087 25.376 175.175 34.84 175.175 49.4C175.175 63.128 163.631 77.896 150.735 90.688C154.687 90.168 159.783 89.752 163.423 89.752H178.711V104H126.087Z" fill="#4A4A4A"/>
<path d="M90.5594 105.456C74.5434 105.456 63.7274 91.728 63.7274 65.104C63.7274 38.48 74.5434 25.376 90.5594 25.376C106.575 25.376 117.287 38.584 117.287 65.104C117.287 91.728 106.575 105.456 90.5594 105.456ZM90.5594 92.248C96.5914 92.248 101.271 86.528 101.271 65.104C101.271 43.784 96.5914 38.48 90.5594 38.48C84.5274 38.48 79.7434 43.784 79.7434 65.104C79.7434 86.528 84.5274 92.248 90.5594 92.248Z" fill="#4A4A4A"/>
<path d="M1.36801 104V94.328C21.44 76.128 34.128 61.88 34.128 50.336C34.128 43.056 30.176 38.688 23.416 38.688C17.904 38.688 13.64 42.328 9.79201 46.488L0.536011 37.232C7.81601 29.328 14.888 25.376 25.6 25.376C40.368 25.376 50.456 34.84 50.456 49.4C50.456 63.128 38.912 77.896 26.016 90.688C29.968 90.168 35.064 89.752 38.704 89.752H53.992V104H1.36801Z" fill="#4A4A4A"/>
<path d="M776.944 105.938L770.596 103.316C776.392 93.242 779.083 81.581 779.083 70.265C779.083 59.018 776.392 47.357 770.596 37.283L776.944 34.592C783.43 45.218 787.225 56.534 787.225 70.265C787.225 84.065 783.43 95.312 776.944 105.938Z" fill="#4A4A4A"/>
<path d="M705.736 54.809H759.487V62.951H705.736V54.809ZM701.182 87.17H764.041V95.312H701.182V87.17ZM727.954 33.557H736.855V92.69H727.954V33.557Z" fill="#4A4A4A"/>
<path d="M688.146 105.938C681.591 95.312 677.796 84.065 677.796 70.265C677.796 56.534 681.591 45.218 688.146 34.592L694.425 37.283C688.629 47.357 686.007 59.018 686.007 70.265C686.007 81.581 688.629 93.242 694.425 103.316L688.146 105.938Z" fill="#4A4A4A"/>
<path d="M1127.94 105.938L1121.6 103.316C1127.39 93.242 1130.08 81.581 1130.08 70.265C1130.08 59.018 1127.39 47.357 1121.6 37.283L1127.94 34.592C1134.43 45.218 1138.23 56.534 1138.23 70.265C1138.23 84.065 1134.43 95.312 1127.94 105.938Z" fill="#4A4A4A"/>
<path d="M1059.63 37.559H1107.8V97.313H1098.9V45.908H1068.19V97.382H1059.63V37.559ZM1065.5 60.743H1102.62V68.954H1065.5V60.743ZM1065.43 84.548H1102.62V92.897H1065.43V84.548Z" fill="#4A4A4A"/>
<path d="M1039.15 105.938C1032.59 95.312 1028.8 84.065 1028.8 70.265C1028.8 56.534 1032.59 45.218 1039.15 34.592L1045.43 37.283C1039.63 47.357 1037.01 59.018 1037.01 70.265C1037.01 81.581 1039.63 93.242 1045.43 103.316L1039.15 105.938Z" fill="#4A4A4A"/>
<path d="M969.971 105.904C953.787 105.904 942.635 99.784 934.611 91.896L945.627 76.664C951.339 82.104 958.411 86.32 966.435 86.32C976.227 86.32 982.347 81.016 982.347 70.544C982.347 60.344 976.227 54.904 967.523 54.904C961.947 54.904 959.227 55.992 953.243 59.8L942.635 52.864L945.219 2.67999H1002.07V22.944H966.027L964.531 40.08C968.203 38.584 971.195 38.04 975.003 38.04C992.139 38.04 1006.55 48.104 1006.55 70C1006.55 92.712 989.419 105.904 969.971 105.904Z" fill="#4A4A4A"/>
<path d="M858.944 104V84.416H880.432V26.888H861.8V11.928C872.68 9.888 879.752 7.168 886.824 2.67999H904.64V84.416H922.864V104H858.944Z" fill="#4A4A4A"/>
<path d="M804.528 72.312V58.032H841.792V72.312H804.528Z" fill="#4A4A4A"/>
</svg>
