<svg width="1046" height="108" viewBox="0 0 1046 108" fill="none" xmlns="http://www.w3.org/2000/svg">
<path d="M517.096 105C517.553 96.4147 518.329 88.5143 519.425 81.299C520.521 73.9923 522.028 67.0967 523.946 60.612C525.956 54.1273 528.559 47.734 531.755 41.432C534.952 35.13 538.97 28.6453 543.811 21.978H499.149V3.20898H567.786V16.909C561.941 23.9417 557.237 30.6546 553.675 37.048C550.113 43.4413 547.373 49.9717 545.455 56.639C543.629 63.3063 542.304 70.5673 541.482 78.422C540.752 86.1853 540.158 95.0447 539.701 105H517.096Z" fill="#4A4A4A"/>
<path d="M415.77 105V92.122C424.629 84.176 432.301 76.778 438.786 69.928C445.27 63.078 450.248 56.6846 453.719 50.748C457.281 44.8113 459.062 39.3313 459.062 34.308C459.062 31.02 458.514 28.2343 457.418 25.951C456.322 23.6676 454.678 21.9323 452.486 20.745C450.385 19.5576 447.828 18.964 444.814 18.964C441.252 18.964 438.009 19.9687 435.087 21.978C432.164 23.9873 429.47 26.362 427.004 29.102L414.674 17.046C419.514 11.7486 424.446 7.82131 429.47 5.26398C434.584 2.70664 440.704 1.42798 447.828 1.42798C454.312 1.42798 459.975 2.75231 464.816 5.40098C469.748 7.95831 473.584 11.6116 476.324 16.361C479.155 21.1103 480.571 26.6816 480.571 33.075C480.571 39.0117 479.018 45.0853 475.913 51.296C472.899 57.5067 468.971 63.6717 464.131 69.791C459.29 75.9103 454.038 81.8013 448.376 87.464C450.933 87.0986 453.764 86.779 456.87 86.505C459.975 86.231 462.669 86.094 464.953 86.094H485.229V105H415.77Z" fill="#4A4A4A"/>
<path d="M387.015 106.918C383.087 106.918 379.845 105.548 377.288 102.808C374.73 99.9766 373.452 96.5973 373.452 92.67C373.452 88.6513 374.73 85.3176 377.288 82.669C379.845 79.929 383.087 78.559 387.015 78.559C390.851 78.559 394.047 79.929 396.605 82.669C399.253 85.3176 400.578 88.6513 400.578 92.67C400.578 96.5973 399.253 99.9766 396.605 102.808C394.047 105.548 390.851 106.918 387.015 106.918Z" fill="#4A4A4A"/>
<path d="M317.335 106.918C310.759 106.918 305.051 105.731 300.21 103.356C295.461 100.981 291.533 98.1957 288.428 94.999L300.21 81.573C302.037 83.5823 304.366 85.272 307.197 86.642C310.12 88.012 313.042 88.697 315.965 88.697C318.796 88.697 321.445 88.1033 323.911 86.916C326.468 85.6373 328.66 83.628 330.487 80.888C332.405 78.0567 333.912 74.312 335.008 69.654C336.104 64.996 336.652 59.242 336.652 52.392C336.652 43.624 335.876 36.774 334.323 31.842C332.77 26.8186 330.761 23.3023 328.295 21.293C325.829 19.1923 323.089 18.142 320.075 18.142C317.792 18.142 315.691 18.7813 313.773 20.06C311.855 21.2473 310.302 23.1196 309.115 25.677C307.928 28.2343 307.334 31.568 307.334 35.678C307.334 39.4226 307.882 42.4823 308.978 44.857C310.165 47.2317 311.764 49.0126 313.773 50.2C315.782 51.296 318.066 51.844 320.623 51.844C323.363 51.844 326.103 51.022 328.843 49.378C331.675 47.6427 334.186 44.857 336.378 41.021L337.474 55.817C335.83 58.1916 333.775 60.2923 331.309 62.119C328.843 63.8543 326.286 65.2243 323.637 66.229C321.08 67.1423 318.659 67.599 316.376 67.599C310.805 67.599 305.781 66.4573 301.306 64.174C296.831 61.8906 293.314 58.3743 290.757 53.625C288.2 48.8756 286.921 42.8933 286.921 35.678C286.921 28.554 288.382 22.4346 291.305 17.32C294.319 12.2053 298.338 8.27798 303.361 5.53798C308.384 2.79798 313.819 1.42798 319.664 1.42798C324.505 1.42798 329.163 2.38698 333.638 4.30498C338.113 6.22298 342.086 9.23698 345.557 13.347C349.028 17.457 351.813 22.7543 353.914 29.239C356.015 35.6323 357.065 43.35 357.065 52.392C357.065 61.7993 355.969 69.928 353.777 76.778C351.585 83.628 348.617 89.2906 344.872 93.766C341.127 98.15 336.88 101.438 332.131 103.63C327.473 105.822 322.541 106.918 317.335 106.918Z" fill="#4A4A4A"/>
<path d="M264.118 106.456C261.136 106.456 258.675 105.416 256.734 103.336C254.792 101.187 253.822 98.6213 253.822 95.64C253.822 92.5893 254.792 90.0586 256.734 88.048C258.675 85.968 261.136 84.928 264.118 84.928C267.03 84.928 269.456 85.968 271.398 88.048C273.408 90.0586 274.414 92.5893 274.414 95.64C274.414 98.6213 273.408 101.187 271.398 103.336C269.456 105.416 267.03 106.456 264.118 106.456Z" fill="#4A4A4A"/>
<path d="M213.302 106.456C209.212 106.456 205.537 105.971 202.278 105C199.02 104.099 196.108 102.851 193.542 101.256C191.046 99.592 188.758 97.7894 186.678 95.848L194.478 85.136C195.934 86.5227 197.494 87.8054 199.158 88.984C200.892 90.0934 202.729 90.9947 204.67 91.688C206.681 92.312 208.761 92.624 210.91 92.624C213.476 92.624 215.694 92.1387 217.566 91.168C219.508 90.1974 221.033 88.7414 222.142 86.8C223.252 84.7894 223.806 82.3974 223.806 79.624C223.806 75.464 222.662 72.2747 220.374 70.056C218.156 67.8374 215.244 66.728 211.638 66.728C209.42 66.728 207.548 67.0054 206.022 67.56C204.566 68.1147 202.694 69.12 200.406 70.576L192.814 65.584L194.894 27.728H237.326V41.976H209.558L208.206 56.64C209.662 56.016 211.049 55.5654 212.366 55.288C213.753 54.9414 215.244 54.768 216.838 54.768C221.206 54.768 225.193 55.6347 228.798 57.368C232.473 59.1014 235.385 61.7707 237.534 65.376C239.684 68.9814 240.758 73.592 240.758 79.208C240.758 84.8934 239.476 89.7814 236.91 93.872C234.345 97.9627 230.982 101.083 226.822 103.232C222.662 105.381 218.156 106.456 213.302 106.456Z" fill="#4A4A4A"/>
<path d="M126.087 105V95.224C132.812 89.192 138.636 83.576 143.559 78.376C148.481 73.176 152.26 68.3226 154.895 63.816C157.599 59.3093 158.951 55.1493 158.951 51.336C158.951 48.84 158.535 46.7253 157.703 44.992C156.871 43.2586 155.623 41.9413 153.959 41.04C152.364 40.1386 150.423 39.688 148.135 39.688C145.431 39.688 142.969 40.4506 140.751 41.976C138.532 43.5013 136.487 45.304 134.615 47.384L125.255 38.232C128.929 34.2106 132.673 31.2293 136.487 29.288C140.369 27.3466 145.015 26.376 150.423 26.376C155.345 26.376 159.644 27.3813 163.319 29.392C167.063 31.3333 169.975 34.1066 172.055 37.712C174.204 41.3173 175.279 45.5466 175.279 50.4C175.279 54.9066 174.1 59.5173 171.743 64.232C169.455 68.9466 166.473 73.6267 162.799 78.272C159.124 82.9173 155.137 87.3893 150.839 91.688C152.78 91.4106 154.929 91.168 157.287 90.96C159.644 90.752 161.689 90.648 163.423 90.648H178.815V105H126.087Z" fill="#4A4A4A"/>
<path d="M90.5593 106.456C85.29 106.456 80.6446 104.965 76.6233 101.984C72.602 98.9333 69.4473 94.392 67.1593 88.36C64.8713 82.328 63.7273 74.8746 63.7273 66C63.7273 57.1253 64.8713 49.776 67.1593 43.952C69.4473 38.0586 72.602 33.656 76.6233 30.744C80.6446 27.832 85.29 26.376 90.5593 26.376C95.9673 26.376 100.647 27.8666 104.599 30.848C108.621 33.76 111.741 38.128 113.959 43.952C116.178 49.776 117.287 57.1253 117.287 66C117.287 74.8746 116.178 82.328 113.959 88.36C111.741 94.392 108.621 98.9333 104.599 101.984C100.647 104.965 95.9673 106.456 90.5593 106.456ZM90.5593 93.248C92.6393 93.248 94.4766 92.4853 96.0713 90.96C97.666 89.3653 98.914 86.592 99.8153 82.64C100.786 78.688 101.271 73.1413 101.271 66C101.271 58.8586 100.786 53.3813 99.8153 49.568C98.914 45.6853 97.666 43.016 96.0713 41.56C94.4766 40.104 92.6393 39.376 90.5593 39.376C88.618 39.376 86.8153 40.104 85.1513 41.56C83.4873 43.016 82.17 45.6853 81.1993 49.568C80.298 53.3813 79.8473 58.8586 79.8473 66C79.8473 73.1413 80.298 78.688 81.1993 82.64C82.17 86.592 83.4873 89.3653 85.1513 90.96C86.8153 92.4853 88.618 93.248 90.5593 93.248Z" fill="#4A4A4A"/>
<path d="M1.36789 105V95.224C8.09322 89.192 13.9172 83.576 18.8399 78.376C23.7626 73.176 27.5412 68.3226 30.1759 63.816C32.8799 59.3093 34.2319 55.1493 34.2319 51.336C34.2319 48.84 33.8159 46.7253 32.9839 44.992C32.1519 43.2586 30.9039 41.9413 29.2399 41.04C27.6452 40.1386 25.7039 39.688 23.4159 39.688C20.7119 39.688 18.2506 40.4506 16.0319 41.976C13.8132 43.5013 11.7679 45.304 9.89589 47.384L0.535889 38.232C4.21056 34.2106 7.95456 31.2293 11.7679 29.288C15.6506 27.3466 20.2959 26.376 25.7039 26.376C30.6266 26.376 34.9252 27.3813 38.5999 29.392C42.3439 31.3333 45.2559 34.1066 47.3359 37.712C49.4852 41.3173 50.5599 45.5466 50.5599 50.4C50.5599 54.9066 49.3812 59.5173 47.0239 64.232C44.7359 68.9466 41.7546 73.6267 38.0799 78.272C34.4052 82.9173 30.4186 87.3893 26.1199 91.688C28.0612 91.4106 30.2106 91.168 32.5679 90.96C34.9252 90.752 36.9706 90.648 38.7039 90.648H54.0959V105H1.36789Z" fill="#4A4A4A"/>
<path d="M683.944 107.938L677.596 105.316C683.392 95.242 686.083 83.581 686.083 72.265C686.083 61.018 683.392 49.357 677.596 39.283L683.944 36.592C690.43 47.218 694.225 58.534 694.225 72.265C694.225 86.065 690.43 97.312 683.944 107.938Z" fill="#4A4A4A"/>
<path d="M612.736 56.809H666.487V64.951H612.736V56.809ZM608.182 89.17H671.041V97.312H608.182V89.17ZM634.954 35.557H643.855V94.69H634.954V35.557Z" fill="#4A4A4A"/>
<path d="M595.146 107.938C588.591 97.312 584.796 86.065 584.796 72.265C584.796 58.534 588.591 47.218 595.146 36.592L601.425 39.283C595.629 49.357 593.007 61.018 593.007 72.265C593.007 83.581 595.629 95.242 601.425 105.316L595.146 107.938Z" fill="#4A4A4A"/>
<path d="M1034.94 107.938L1028.6 105.316C1034.39 95.242 1037.08 83.581 1037.08 72.265C1037.08 61.018 1034.39 49.357 1028.6 39.283L1034.94 36.592C1041.43 47.218 1045.23 58.534 1045.23 72.265C1045.23 86.065 1041.43 97.312 1034.94 107.938Z" fill="#4A4A4A"/>
<path d="M966.634 39.559H1014.8V99.313H1005.9V47.908H975.19V99.382H966.634V39.559ZM972.499 62.743H1009.62V70.954H972.499V62.743ZM972.43 86.548H1009.62V94.897H972.43V86.548Z" fill="#4A4A4A"/>
<path d="M946.146 107.938C939.591 97.312 935.796 86.065 935.796 72.265C935.796 58.534 939.591 47.218 946.146 36.592L952.425 39.283C946.629 49.357 944.007 61.018 944.007 72.265C944.007 83.581 946.629 95.242 952.425 105.316L946.146 107.938Z" fill="#4A4A4A"/>
<path d="M883.145 105.904C876.527 105.904 870.588 104.771 865.329 102.504C860.161 100.237 856.036 97.064 852.953 92.984C849.961 88.904 848.465 84.1893 848.465 78.84C848.465 74.5786 849.191 70.8613 850.641 67.688C852.092 64.424 854.087 61.6133 856.625 59.256C859.164 56.8987 861.975 54.904 865.057 53.272V52.592C861.159 49.6906 857.985 46.2453 855.537 42.256C853.089 38.2667 851.865 33.5973 851.865 28.248C851.865 22.6267 853.225 17.776 855.945 13.696C858.756 9.61598 862.564 6.48798 867.369 4.31199C872.175 2.04532 877.705 0.911987 883.961 0.911987C890.036 0.911987 895.34 2.04532 899.873 4.31199C904.407 6.48798 907.943 9.61598 910.481 13.696C913.02 17.6853 914.289 22.4453 914.289 27.976C914.289 31.1493 913.7 34.1413 912.521 36.952C911.343 39.7627 909.801 42.3013 907.897 44.568C905.993 46.8347 903.863 48.784 901.505 50.416V51.096C904.769 52.728 907.671 54.8133 910.209 57.352C912.748 59.8 914.743 62.792 916.193 66.328C917.735 69.7733 918.505 73.808 918.505 78.432C918.505 83.6 917.009 88.2693 914.017 92.44C911.116 96.6107 906.991 99.92 901.641 102.368C896.383 104.725 890.217 105.904 883.145 105.904ZM889.265 44.568C891.169 42.2107 892.529 39.7627 893.345 37.224C894.252 34.6853 894.705 32.1466 894.705 29.608C894.705 27.16 894.252 25.0293 893.345 23.216C892.439 21.4027 891.124 20.0427 889.401 19.136C887.769 18.1386 885.775 17.64 883.417 17.64C880.607 17.64 878.159 18.5013 876.073 20.224C874.079 21.9467 873.081 24.6213 873.081 28.248C873.081 30.8773 873.716 33.1893 874.985 35.184C876.345 37.088 878.249 38.8107 880.697 40.352C883.145 41.8027 886.001 43.208 889.265 44.568ZM883.689 89.04C886.047 89.04 888.132 88.632 889.945 87.816C891.849 87 893.345 85.7307 894.433 84.008C895.521 82.2853 896.065 80.1093 896.065 77.48C896.065 75.304 895.567 73.4 894.569 71.768C893.663 70.0453 892.348 68.504 890.625 67.144C888.903 65.784 886.772 64.5147 884.233 63.336C881.785 62.1573 879.02 60.888 875.937 59.528C873.943 61.5227 872.311 63.9707 871.041 66.872C869.772 69.7733 869.137 72.8107 869.137 75.984C869.137 78.704 869.772 81.0613 871.041 83.056C872.401 84.96 874.169 86.456 876.345 87.544C878.612 88.5413 881.06 89.04 883.689 89.04Z" fill="#4A4A4A"/>
<path d="M764.774 104V90.128C773.206 82.4213 780.596 75.2587 786.942 68.64C793.289 62.0213 798.23 55.856 801.766 50.144C805.302 44.3413 807.07 38.992 807.07 34.096C807.07 31.0133 806.526 28.4293 805.438 26.344C804.441 24.168 802.945 22.536 800.95 21.448C798.956 20.36 796.598 19.816 793.878 19.816C790.433 19.816 787.305 20.8133 784.494 22.808C781.774 24.712 779.19 26.9787 776.742 29.608L763.55 16.552C768.537 11.2027 773.569 7.25865 778.646 4.71999C783.814 2.18132 789.98 0.911987 797.142 0.911987C803.67 0.911987 809.428 2.22665 814.414 4.85598C819.401 7.48532 823.3 11.2027 826.11 16.008C828.921 20.7227 830.326 26.2986 830.326 32.736C830.326 38.5387 828.83 44.4773 825.838 50.552C822.937 56.536 819.174 62.4746 814.55 68.368C809.926 74.1706 805.03 79.7013 799.862 84.96C802.401 84.5973 805.212 84.28 808.294 84.008C811.468 83.736 814.188 83.6 816.454 83.6H834.95V104H764.774Z" fill="#4A4A4A"/>
<path d="M713.8 73.1281V56.1281H752.288V73.1281H713.8Z" fill="#4A4A4A"/>
</svg>
