<svg width="1045" height="108" viewBox="0 0 1045 108" fill="none" xmlns="http://www.w3.org/2000/svg">
<path d="M502.586 104.088V86.004H524.369V25.039H505.737V11.202C511.034 10.2887 515.555 9.147 519.3 7.777C523.136 6.31566 526.744 4.489 530.123 2.297H546.7V86.004H565.332V104.088H502.586Z" fill="#4A4A4A"/>
<path d="M420.439 104.088V86.004H442.222V25.039H423.59V11.202C428.888 10.2887 433.409 9.147 437.153 7.777C440.989 6.31566 444.597 4.489 447.976 2.297H464.553V86.004H483.185V104.088H420.439Z" fill="#4A4A4A"/>
<path d="M386.479 106.006C382.551 106.006 379.309 104.636 376.752 101.896C374.194 99.0646 372.916 95.6853 372.916 91.758C372.916 87.7393 374.194 84.4056 376.752 81.757C379.309 79.017 382.551 77.647 386.479 77.647C390.315 77.647 393.511 79.017 396.069 81.757C398.717 84.4056 400.042 87.7393 400.042 91.758C400.042 95.6853 398.717 99.0646 396.069 101.896C393.511 104.636 390.315 106.006 386.479 106.006Z" fill="#4A4A4A"/>
<path d="M305.976 104.088C306.432 95.5027 307.209 87.6023 308.305 80.387C309.401 73.0803 310.908 66.1847 312.826 59.7C314.835 53.2153 317.438 46.822 320.635 40.52C323.831 34.218 327.85 27.7333 332.691 21.066H288.029V2.297H356.666V15.997C350.82 23.0297 346.117 29.7427 342.555 36.136C338.993 42.5293 336.253 49.0597 334.335 55.727C332.508 62.3943 331.184 69.6553 330.362 77.51C329.631 85.2733 329.037 94.1327 328.581 104.088H305.976Z" fill="#4A4A4A"/>
<path d="M263.581 105.544C260.6 105.544 258.138 104.504 256.197 102.424C254.256 100.275 253.285 97.7093 253.285 94.728C253.285 91.6773 254.256 89.1467 256.197 87.136C258.138 85.056 260.6 84.016 263.581 84.016C266.493 84.016 268.92 85.056 270.861 87.136C272.872 89.1467 273.877 91.6773 273.877 94.728C273.877 97.7093 272.872 100.275 270.861 102.424C268.92 104.504 266.493 105.544 263.581 105.544Z" fill="#4A4A4A"/>
<path d="M216.822 105.544C213.217 105.544 209.716 104.781 206.318 103.256C202.921 101.731 199.87 99.408 197.166 96.288C194.532 93.0987 192.417 89.0427 190.822 84.12C189.297 79.1973 188.534 73.2693 188.534 66.336C188.534 59.264 189.366 53.1627 191.03 48.032C192.694 42.832 194.948 38.568 197.79 35.24C200.633 31.912 203.857 29.4507 207.462 27.856C211.068 26.2613 214.846 25.464 218.798 25.464C223.79 25.464 228.054 26.3653 231.59 28.168C235.196 29.9013 238.212 32.016 240.638 34.512L231.59 44.496C230.273 43.04 228.54 41.792 226.39 40.752C224.241 39.6427 222.092 39.088 219.942 39.088C216.961 39.088 214.257 39.9547 211.83 41.688C209.473 43.352 207.566 46.16 206.11 50.112C204.724 54.064 204.03 59.472 204.03 66.336C204.03 72.992 204.585 78.2613 205.694 82.144C206.873 85.9573 208.398 88.696 210.27 90.36C212.212 91.9547 214.292 92.752 216.51 92.752C218.313 92.752 219.942 92.2667 221.398 91.296C222.854 90.3253 223.998 88.8693 224.83 86.928C225.732 84.9867 226.182 82.4907 226.182 79.44C226.182 76.528 225.732 74.1707 224.83 72.368C223.929 70.5653 222.716 69.2827 221.19 68.52C219.734 67.688 218.036 67.272 216.094 67.272C214.084 67.272 212.004 67.8613 209.854 69.04C207.705 70.2187 205.764 72.3333 204.03 75.384L203.302 64.152C204.62 62.28 206.18 60.6853 207.982 59.368C209.854 58.0507 211.796 57.0453 213.806 56.352C215.817 55.6587 217.654 55.312 219.318 55.312C223.617 55.312 227.43 56.1787 230.758 57.912C234.156 59.576 236.825 62.2107 238.766 65.816C240.708 69.352 241.678 73.8933 241.678 79.44C241.678 84.848 240.534 89.4933 238.246 93.376C236.028 97.2587 233.012 100.275 229.198 102.424C225.454 104.504 221.329 105.544 216.822 105.544Z" fill="#4A4A4A"/>
<path d="M125.551 104.088V94.312C132.276 88.28 138.1 82.664 143.023 77.464C147.945 72.264 151.724 67.4107 154.359 62.904C157.063 58.3973 158.415 54.2373 158.415 50.424C158.415 47.928 157.999 45.8133 157.167 44.08C156.335 42.3467 155.087 41.0293 153.423 40.128C151.828 39.2267 149.887 38.776 147.599 38.776C144.895 38.776 142.433 39.5387 140.215 41.064C137.996 42.5893 135.951 44.392 134.079 46.472L124.719 37.32C128.393 33.2987 132.137 30.3173 135.951 28.376C139.833 26.4347 144.479 25.464 149.887 25.464C154.809 25.464 159.108 26.4693 162.783 28.48C166.527 30.4213 169.439 33.1947 171.519 36.8C173.668 40.4053 174.743 44.6347 174.743 49.488C174.743 53.9947 173.564 58.6053 171.207 63.32C168.919 68.0347 165.937 72.7147 162.263 77.36C158.588 82.0053 154.601 86.4773 150.303 90.776C152.244 90.4987 154.393 90.256 156.751 90.048C159.108 89.84 161.153 89.736 162.887 89.736H178.279V104.088H125.551Z" fill="#4A4A4A"/>
<path d="M90.0234 105.544C84.7541 105.544 80.1087 104.053 76.0874 101.072C72.0661 98.0213 68.9114 93.48 66.6234 87.448C64.3354 81.416 63.1914 73.9627 63.1914 65.088C63.1914 56.2133 64.3354 48.864 66.6234 43.04C68.9114 37.1467 72.0661 32.744 76.0874 29.832C80.1087 26.92 84.7541 25.464 90.0234 25.464C95.4314 25.464 100.111 26.9547 104.063 29.936C108.085 32.848 111.205 37.216 113.423 43.04C115.642 48.864 116.751 56.2133 116.751 65.088C116.751 73.9627 115.642 81.416 113.423 87.448C111.205 93.48 108.085 98.0213 104.063 101.072C100.111 104.053 95.4314 105.544 90.0234 105.544ZM90.0234 92.336C92.1034 92.336 93.9407 91.5733 95.5354 90.048C97.1301 88.4533 98.3781 85.68 99.2794 81.728C100.25 77.776 100.735 72.2293 100.735 65.088C100.735 57.9467 100.25 52.4693 99.2794 48.656C98.3781 44.7733 97.1301 42.104 95.5354 40.648C93.9407 39.192 92.1034 38.464 90.0234 38.464C88.0821 38.464 86.2794 39.192 84.6154 40.648C82.9514 42.104 81.6341 44.7733 80.6634 48.656C79.7621 52.4693 79.3114 57.9467 79.3114 65.088C79.3114 72.2293 79.7621 77.776 80.6634 81.728C81.6341 85.68 82.9514 88.4533 84.6154 90.048C86.2794 91.5733 88.0821 92.336 90.0234 92.336Z" fill="#4A4A4A"/>
<path d="M0.832 104.088V94.312C7.55733 88.28 13.3813 82.664 18.304 77.464C23.2267 72.264 27.0053 67.4107 29.64 62.904C32.344 58.3973 33.696 54.2373 33.696 50.424C33.696 47.928 33.28 45.8133 32.448 44.08C31.616 42.3467 30.368 41.0293 28.704 40.128C27.1093 39.2267 25.168 38.776 22.88 38.776C20.176 38.776 17.7147 39.5387 15.496 41.064C13.2773 42.5893 11.232 44.392 9.36 46.472L0 37.32C3.67467 33.2987 7.41867 30.3173 11.232 28.376C15.1147 26.4347 19.76 25.464 25.168 25.464C30.0907 25.464 34.3893 26.4693 38.064 28.48C41.808 30.4213 44.72 33.1947 46.8 36.8C48.9493 40.4053 50.024 44.6347 50.024 49.488C50.024 53.9947 48.8453 58.6053 46.488 63.32C44.2 68.0347 41.2187 72.7147 37.544 77.36C33.8693 82.0053 29.8827 86.4773 25.584 90.776C27.5253 90.4987 29.6747 90.256 32.032 90.048C34.3893 89.84 36.4347 89.736 38.168 89.736H53.56V104.088H0.832Z" fill="#4A4A4A"/>
<path d="M683.408 107.026L677.06 104.404C682.856 94.33 685.547 82.669 685.547 71.353C685.547 60.106 682.856 48.445 677.06 38.371L683.408 35.68C689.894 46.306 693.689 57.622 693.689 71.353C693.689 85.153 689.894 96.4 683.408 107.026Z" fill="#4A4A4A"/>
<path d="M612.2 55.897H665.951V64.039H612.2V55.897ZM607.646 88.258H670.505V96.4H607.646V88.258ZM634.418 34.645H643.319V93.778H634.418V34.645Z" fill="#4A4A4A"/>
<path d="M594.61 107.026C588.055 96.4 584.26 85.153 584.26 71.353C584.26 57.622 588.055 46.306 594.61 35.68L600.889 38.371C595.093 48.445 592.471 60.106 592.471 71.353C592.471 82.669 595.093 94.33 600.889 104.404L594.61 107.026Z" fill="#4A4A4A"/>
<path d="M1034.41 107.026L1028.06 104.404C1033.86 94.33 1036.55 82.669 1036.55 71.353C1036.55 60.106 1033.86 48.445 1028.06 38.371L1034.41 35.68C1040.89 46.306 1044.69 57.622 1044.69 71.353C1044.69 85.153 1040.89 96.4 1034.41 107.026Z" fill="#4A4A4A"/>
<path d="M966.098 38.647H1014.26V98.401H1005.36V46.996H974.654V98.47H966.098V38.647ZM971.963 61.831H1009.09V70.042H971.963V61.831ZM971.894 85.636H1009.09V93.985H971.894V85.636Z" fill="#4A4A4A"/>
<path d="M945.61 107.026C939.055 96.4 935.26 85.153 935.26 71.353C935.26 57.622 939.055 46.306 945.61 35.68L951.889 38.371C946.093 48.445 943.471 60.106 943.471 71.353C943.471 82.669 946.093 94.33 951.889 104.404L945.61 107.026Z" fill="#4A4A4A"/>
<path d="M847.114 103.088V89.216C855.546 81.5093 862.935 74.3467 869.282 67.728C875.628 61.1093 880.57 54.944 884.106 49.232C887.642 43.4293 889.41 38.08 889.41 33.184C889.41 30.1013 888.866 27.5173 887.778 25.432C886.78 23.256 885.284 21.624 883.29 20.536C881.295 19.448 878.938 18.904 876.218 18.904C872.772 18.904 869.644 19.9013 866.834 21.896C864.114 23.8 861.53 26.0667 859.082 28.696L845.89 15.64C850.876 10.2907 855.908 6.34667 860.986 3.808C866.154 1.26933 872.319 0 879.482 0C886.01 0 891.767 1.31466 896.754 3.944C901.74 6.57333 905.639 10.2907 908.45 15.096C911.26 19.8107 912.666 25.3867 912.666 31.824C912.666 37.6267 911.17 43.5653 908.178 49.64C905.276 55.624 901.514 61.5627 896.89 67.456C892.266 73.2587 887.37 78.7893 882.202 84.048C884.74 83.6853 887.551 83.368 890.634 83.096C893.807 82.824 896.527 82.688 898.794 82.688H917.29V103.088H847.114Z" fill="#4A4A4A"/>
<path d="M769.134 103.088V83.504H790.622V25.976H771.99V11.016C777.43 10.0187 782.054 8.79468 785.862 7.34401C789.761 5.89334 793.478 4.03468 797.014 1.76801H814.83V83.504H833.054V103.088H769.134Z" fill="#4A4A4A"/>
<path d="M713.264 72.216V55.216H751.752V72.216H713.264Z" fill="#4A4A4A"/>
</svg>
