<svg width="1046" height="106" viewBox="0 0 1046 106" fill="none" xmlns="http://www.w3.org/2000/svg">
<path d="M530.659 105.918C514.356 105.918 503.396 99.753 495.587 91.944L505.862 77.833C511.616 83.45 518.74 87.834 527.371 87.834C537.646 87.834 544.359 81.806 544.359 70.572C544.359 59.612 537.92 53.584 528.467 53.584C522.576 53.584 519.699 54.954 513.671 58.79L503.67 52.214L506.41 2.20898H562.169V20.978H525.59L523.946 40.295C527.782 38.651 531.07 37.966 535.18 37.966C552.442 37.966 566.827 47.967 566.827 70.024C566.827 92.766 549.702 105.918 530.659 105.918Z" fill="#4A4A4A"/>
<path d="M420.838 104V85.916H442.621V25.088H423.989V11.251C434.675 9.19598 441.662 6.59299 448.512 2.20898H464.952V85.916H483.721V104H420.838Z" fill="#4A4A4A"/>
<path d="M386.877 105.918C379.068 105.918 373.314 99.753 373.314 91.67C373.314 83.724 379.068 77.559 386.877 77.559C394.686 77.559 400.44 83.724 400.44 91.67C400.44 99.753 394.686 105.918 386.877 105.918Z" fill="#4A4A4A"/>
<path d="M319.39 105.918C303.224 105.918 292.127 100.164 284.866 91.807L295.278 77.696C301.443 83.45 308.567 87.834 317.198 87.834C327.062 87.834 333.638 83.313 333.638 74.956C333.638 65.64 328.432 60.023 306.649 60.023V43.994C324.733 43.994 330.35 38.24 330.35 29.746C330.35 22.211 325.829 17.964 317.883 17.964C310.759 17.964 305.279 21.252 299.251 26.732L287.88 13.032C296.922 5.22298 306.923 0.427979 318.842 0.427979C339.255 0.427979 352.818 10.292 352.818 28.102C352.818 38.514 347.064 46.597 336.241 50.844V51.529C347.612 54.817 356.106 63.174 356.106 76.463C356.106 95.232 339.255 105.918 319.39 105.918Z" fill="#4A4A4A"/>
<path d="M264.013 105.456C258.085 105.456 253.717 100.776 253.717 94.64C253.717 88.608 258.085 83.928 264.013 83.928C269.941 83.928 274.309 88.608 274.309 94.64C274.309 100.776 269.941 105.456 264.013 105.456Z" fill="#4A4A4A"/>
<path d="M213.302 105.456C200.926 105.456 192.606 100.776 186.678 94.848L194.478 84.136C198.846 88.4 204.254 91.728 210.806 91.728C218.606 91.728 223.702 87.152 223.702 78.624C223.702 70.304 218.814 65.728 211.638 65.728C207.166 65.728 204.982 66.768 200.406 69.68L192.814 64.688L194.894 26.728H237.222V40.976H209.454L208.206 55.64C211.118 54.392 213.614 53.872 216.734 53.872C229.838 53.872 240.758 61.464 240.758 78.208C240.758 95.472 227.758 105.456 213.302 105.456Z" fill="#4A4A4A"/>
<path d="M126.087 104V94.328C146.159 76.128 158.847 61.88 158.847 50.336C158.847 43.056 154.895 38.688 148.135 38.688C142.623 38.688 138.359 42.328 134.511 46.488L125.255 37.232C132.535 29.328 139.607 25.376 150.319 25.376C165.087 25.376 175.175 34.84 175.175 49.4C175.175 63.128 163.631 77.896 150.735 90.688C154.687 90.168 159.783 89.752 163.423 89.752H178.711V104H126.087Z" fill="#4A4A4A"/>
<path d="M90.5593 105.456C74.5433 105.456 63.7273 91.728 63.7273 65.104C63.7273 38.48 74.5433 25.376 90.5593 25.376C106.575 25.376 117.287 38.584 117.287 65.104C117.287 91.728 106.575 105.456 90.5593 105.456ZM90.5593 92.248C96.5913 92.248 101.271 86.528 101.271 65.104C101.271 43.784 96.5913 38.48 90.5593 38.48C84.5273 38.48 79.7433 43.784 79.7433 65.104C79.7433 86.528 84.5273 92.248 90.5593 92.248Z" fill="#4A4A4A"/>
<path d="M1.36789 104V94.328C21.4399 76.128 34.1279 61.88 34.1279 50.336C34.1279 43.056 30.1759 38.688 23.4159 38.688C17.9039 38.688 13.6399 42.328 9.79189 46.488L0.535889 37.232C7.81589 29.328 14.8879 25.376 25.5999 25.376C40.3679 25.376 50.4559 34.84 50.4559 49.4C50.4559 63.128 38.9119 77.896 26.0159 90.688C29.9679 90.168 35.0639 89.752 38.7039 89.752H53.9919V104H1.36789Z" fill="#4A4A4A"/>
<path d="M685.944 105.938L679.596 103.316C685.392 93.242 688.083 81.581 688.083 70.265C688.083 59.018 685.392 47.357 679.596 37.283L685.944 34.592C692.43 45.218 696.225 56.534 696.225 70.265C696.225 84.065 692.43 95.312 685.944 105.938Z" fill="#4A4A4A"/>
<path d="M614.736 54.809H668.487V62.951H614.736V54.809ZM610.182 87.17H673.041V95.312H610.182V87.17ZM636.954 33.557H645.855V92.69H636.954V33.557Z" fill="#4A4A4A"/>
<path d="M597.146 105.938C590.591 95.312 586.796 84.065 586.796 70.265C586.796 56.534 590.591 45.218 597.146 34.592L603.425 37.283C597.629 47.357 595.007 59.018 595.007 70.265C595.007 81.581 597.629 93.242 603.425 103.316L597.146 105.938Z" fill="#4A4A4A"/>
<path d="M1034.94 105.938L1028.6 103.316C1034.39 93.242 1037.08 81.581 1037.08 70.265C1037.08 59.018 1034.39 47.357 1028.6 37.283L1034.94 34.592C1041.43 45.218 1045.23 56.534 1045.23 70.265C1045.23 84.065 1041.43 95.312 1034.94 105.938Z" fill="#4A4A4A"/>
<path d="M966.634 37.5591H1014.8V97.3131H1005.9V45.9081H975.19V97.3821H966.634V37.5591ZM972.499 60.7431H1009.62V68.9541H972.499V60.7431ZM972.43 84.5481H1009.62V92.8971H972.43V84.5481Z" fill="#4A4A4A"/>
<path d="M946.146 105.938C939.591 95.312 935.796 84.065 935.796 70.265C935.796 56.534 939.591 45.218 946.146 34.592L952.425 37.283C946.629 47.357 944.007 59.018 944.007 70.265C944.007 81.581 946.629 93.242 952.425 103.316L946.146 105.938Z" fill="#4A4A4A"/>
<path d="M886.001 105.904C866.961 105.904 848.193 91.08 848.193 54.224C848.193 17.64 867.505 0.911987 888.449 0.911987C901.777 0.911987 911.569 6.48799 917.961 13.016L905.177 27.296C901.913 23.76 895.657 20.224 890.081 20.224C878.929 20.224 870.225 28.792 870.225 54.224C870.225 80.608 877.841 87.816 885.457 87.816C891.849 87.816 897.289 83.056 897.289 71.496C897.289 60.48 891.713 56.808 885.049 56.808C880.017 56.808 874.441 59.392 870.361 66.736L869.273 51.096C874.169 43.888 883.553 39.808 889.673 39.808C906.537 39.808 919.321 49.6 919.321 71.496C919.321 92.984 904.089 105.904 886.001 105.904Z" fill="#4A4A4A"/>
<path d="M769.67 104V84.4159H791.158V26.8879H772.526V11.9279C783.406 9.88793 790.478 7.16794 797.55 2.67993H815.366V84.4159H833.59V104H769.67Z" fill="#4A4A4A"/>
<path d="M713.8 73.1279V56.1279H752.288V73.1279H713.8Z" fill="#4A4A4A"/>
</svg>
