<svg width="1047" height="105" viewBox="0 0 1047 105" fill="none" xmlns="http://www.w3.org/2000/svg">
<path d="M1.36801 103V93.328C8.09335 87.2267 13.9173 81.576 18.84 76.376C23.7627 71.176 27.5413 66.3227 30.176 61.816C32.88 57.3093 34.232 53.1493 34.232 49.336C34.232 46.84 33.816 44.7253 32.984 42.992C32.152 41.2587 30.904 39.9413 29.24 39.04C27.6453 38.0693 25.704 37.584 23.416 37.584C20.712 37.584 18.2507 38.3467 16.032 39.872C13.8133 41.3973 11.7333 43.2347 9.79201 45.384L0.536011 36.232C4.21068 32.28 7.95468 29.3333 11.768 27.392C15.6507 25.3813 20.296 24.376 25.704 24.376C30.6267 24.376 34.9253 25.3813 38.6 27.392C42.344 29.3333 45.256 32.1067 47.336 35.712C49.416 39.3173 50.456 43.5467 50.456 48.4C50.456 52.9067 49.312 57.5173 47.024 62.232C44.736 66.9467 41.72 71.6267 37.976 76.272C34.3013 80.9173 30.3147 85.3893 26.016 89.688C27.9573 89.48 30.1067 89.272 32.464 89.064C34.8213 88.856 36.8667 88.752 38.6 88.752H53.992V103H1.36801Z" fill="#4A4A4A"/>
<path d="M90.4578 104.456C85.1885 104.456 80.5432 102.965 76.5218 99.984C72.5005 96.9333 69.3458 92.392 67.0578 86.36C64.8392 80.328 63.7298 72.8747 63.7298 64C63.7298 55.1253 64.8392 47.776 67.0578 41.952C69.3458 36.0587 72.5005 31.656 76.5218 28.744C80.5432 25.832 85.1885 24.376 90.4578 24.376C95.8658 24.376 100.546 25.8667 104.498 28.848C108.519 31.76 111.639 36.128 113.858 41.952C116.076 47.776 117.186 55.1253 117.186 64C117.186 72.8747 116.076 80.328 113.858 86.36C111.639 92.392 108.519 96.9333 104.498 99.984C100.546 102.965 95.8658 104.456 90.4578 104.456ZM90.4578 91.248C92.5378 91.248 94.3752 90.4853 95.9698 88.96C97.5645 87.3653 98.8125 84.592 99.7138 80.64C100.684 76.688 101.17 71.1413 101.17 64C101.17 56.8587 100.684 51.3813 99.7138 47.568C98.8125 43.6853 97.5645 41.016 95.9698 39.56C94.3752 38.104 92.5378 37.376 90.4578 37.376C88.4472 37.376 86.6098 38.104 84.9458 39.56C83.3512 41.016 82.0685 43.6853 81.0978 47.568C80.1272 51.3813 79.6418 56.8587 79.6418 64C79.6418 71.1413 80.1272 76.688 81.0978 80.64C82.0685 84.592 83.3512 87.3653 84.9458 88.96C86.6098 90.4853 88.4472 91.248 90.4578 91.248Z" fill="#4A4A4A"/>
<path d="M125.884 103V93.328C132.609 87.2267 138.433 81.576 143.356 76.376C148.278 71.176 152.057 66.3227 154.692 61.816C157.396 57.3093 158.748 53.1493 158.748 49.336C158.748 46.84 158.332 44.7253 157.5 42.992C156.668 41.2587 155.42 39.9413 153.756 39.04C152.161 38.0693 150.22 37.584 147.932 37.584C145.228 37.584 142.766 38.3467 140.548 39.872C138.329 41.3973 136.249 43.2347 134.308 45.384L125.052 36.232C128.726 32.28 132.47 29.3333 136.284 27.392C140.166 25.3813 144.812 24.376 150.22 24.376C155.142 24.376 159.441 25.3813 163.116 27.392C166.86 29.3333 169.772 32.1067 171.852 35.712C173.932 39.3173 174.972 43.5467 174.972 48.4C174.972 52.9067 173.828 57.5173 171.54 62.232C169.252 66.9467 166.236 71.6267 162.492 76.272C158.817 80.9173 154.83 85.3893 150.532 89.688C152.473 89.48 154.622 89.272 156.98 89.064C159.337 88.856 161.382 88.752 163.116 88.752H178.508V103H125.884Z" fill="#4A4A4A"/>
<path d="M218.717 103V56.928C218.717 54.64 218.787 51.9013 218.925 48.712C219.133 45.5227 219.272 42.7147 219.341 40.288H218.925C217.955 42.4373 216.949 44.6213 215.909 46.84C214.869 48.9893 213.795 51.1387 212.685 53.288L202.285 70.448H243.261V83.344H186.061V71.696L213.829 25.728H234.421V103H218.717Z" fill="#4A4A4A"/>
<path d="M263.607 104.456C260.695 104.456 258.269 103.416 256.327 101.336C254.386 99.256 253.415 96.6907 253.415 93.64C253.415 90.5893 254.386 88.0587 256.327 86.048C258.269 84.0373 260.695 83.032 263.607 83.032C266.589 83.032 269.05 84.0373 270.991 86.048C272.933 88.0587 273.903 90.5893 273.903 93.64C273.903 96.6907 272.933 99.256 270.991 101.336C269.05 103.416 266.589 104.456 263.607 104.456Z" fill="#4A4A4A"/>
<path d="M327.52 104.904C322.805 104.904 318.227 103.907 313.784 101.912C309.341 99.9173 305.352 96.88 301.816 92.8C298.371 88.6293 295.605 83.3253 293.52 76.888C291.525 70.4507 290.528 62.6987 290.528 53.632C290.528 44.384 291.616 36.4053 293.792 29.696C295.968 22.896 298.915 17.32 302.632 12.968C306.349 8.61599 310.565 5.39733 315.28 3.31199C319.995 1.22666 324.936 0.183994 330.104 0.183994C336.541 0.183994 342.117 1.36266 346.832 3.72C351.547 5.98666 355.445 8.75199 358.528 12.016L346.832 25.072C345.109 23.168 342.843 21.4907 340.032 20.04C337.221 18.5893 334.411 17.864 331.6 17.864C327.701 17.864 324.165 18.9973 320.992 21.264C317.819 23.5307 315.28 27.248 313.376 32.416C311.563 37.584 310.656 44.656 310.656 53.632C310.656 62.336 311.427 69.2267 312.968 74.304C314.509 79.2907 316.504 82.872 318.952 85.048C321.4 87.224 324.12 88.312 327.112 88.312C329.469 88.312 331.6 87.6773 333.504 86.408C335.408 85.1387 336.904 83.2347 337.992 80.696C339.171 78.0667 339.76 74.8027 339.76 70.904C339.76 67.0053 339.171 63.8773 337.992 61.52C336.904 59.1627 335.363 57.4853 333.368 56.488C331.373 55.4 329.107 54.856 326.568 54.856C323.848 54.856 321.083 55.6267 318.272 57.168C315.552 58.7093 313.013 61.4747 310.656 65.464L309.704 50.776C311.427 48.328 313.512 46.2427 315.96 44.52C318.408 42.7973 320.947 41.4827 323.576 40.576C326.205 39.6693 328.563 39.216 330.648 39.216C336.269 39.216 341.301 40.3493 345.744 42.616C350.187 44.792 353.677 48.2373 356.216 52.952C358.755 57.576 360.024 63.56 360.024 70.904C360.024 77.8853 358.528 83.9147 355.536 88.992C352.544 94.0693 348.6 98.0133 343.704 100.824C338.808 103.544 333.413 104.904 327.52 104.904Z" fill="#4A4A4A"/>
<path d="M388.398 104.904C384.59 104.904 381.417 103.544 378.878 100.824C376.339 98.104 375.07 94.7493 375.07 90.76C375.07 86.7707 376.339 83.4613 378.878 80.832C381.417 78.2027 384.59 76.888 388.398 76.888C392.297 76.888 395.515 78.2027 398.054 80.832C400.593 83.4613 401.862 86.7707 401.862 90.76C401.862 94.7493 400.593 98.104 398.054 100.824C395.515 103.544 392.297 104.904 388.398 104.904Z" fill="#4A4A4A"/>
<path d="M417.079 103V90.352C425.874 82.3733 433.49 74.984 439.927 68.184C446.364 61.384 451.306 55.0373 454.751 49.144C458.287 43.2507 460.055 37.8107 460.055 32.824C460.055 29.56 459.511 26.7947 458.423 24.528C457.335 22.2613 455.703 20.5387 453.527 19.36C451.442 18.0907 448.903 17.456 445.911 17.456C442.375 17.456 439.156 18.4533 436.255 20.448C433.354 22.4427 430.634 24.8453 428.095 27.656L415.991 15.688C420.796 10.52 425.692 6.66666 430.679 4.12799C435.756 1.49866 441.831 0.183994 448.903 0.183994C455.34 0.183994 460.962 1.49866 465.767 4.12799C470.663 6.66666 474.471 10.2933 477.191 15.008C479.911 19.7227 481.271 25.2533 481.271 31.6C481.271 37.4933 479.775 43.5227 476.783 49.688C473.791 55.8533 469.847 61.9733 464.951 68.048C460.146 74.1227 454.932 79.9707 449.311 85.592C451.85 85.32 454.66 85.048 457.743 84.776C460.826 84.504 463.5 84.368 465.767 84.368H485.895V103H417.079Z" fill="#4A4A4A"/>
<path d="M528.277 104.904C521.749 104.904 516.083 103.725 511.277 101.368C506.563 99.0107 502.664 96.2453 499.581 93.072L511.277 79.744C513.091 81.7387 515.403 83.4613 518.213 84.912C521.115 86.272 524.016 86.952 526.917 86.952C529.728 86.952 532.357 86.3627 534.805 85.184C537.344 83.9147 539.565 81.8747 541.469 79.064C543.373 76.2533 544.824 72.536 545.821 67.912C546.909 63.288 547.453 57.576 547.453 50.776C547.453 42.072 546.683 35.272 545.141 30.376C543.6 25.3893 541.56 21.8987 539.021 19.904C536.573 17.8187 533.899 16.776 530.997 16.776C528.731 16.776 526.6 17.4107 524.605 18.68C522.701 19.8587 521.16 21.7173 519.981 24.256C518.803 26.7947 518.213 30.104 518.213 34.184C518.213 37.9013 518.757 40.984 519.845 43.432C521.024 45.7893 522.611 47.512 524.605 48.6C526.691 49.688 529.003 50.232 531.541 50.232C534.171 50.232 536.891 49.416 539.701 47.784C542.512 46.152 545.005 43.3867 547.181 39.488L548.405 54.176C546.683 56.5333 544.597 58.6187 542.149 60.432C539.701 62.1547 537.163 63.5147 534.533 64.512C531.995 65.4187 529.592 65.872 527.325 65.872C521.704 65.872 516.672 64.7387 512.229 62.472C507.877 60.2053 504.432 56.7147 501.893 52C499.355 47.2853 498.085 41.3467 498.085 34.184C498.085 27.112 499.536 21.0373 502.437 15.96C505.429 10.8827 509.373 6.984 514.269 4.264C519.256 1.544 524.696 0.183994 530.589 0.183994C535.395 0.183994 539.973 1.136 544.325 3.04C548.768 4.944 552.712 7.93599 556.157 12.016C559.693 16.096 562.459 21.3547 564.453 27.792C566.539 34.1387 567.581 41.8 567.581 50.776C567.581 60.1147 566.493 68.184 564.317 74.984C562.232 81.784 559.285 87.4053 555.477 91.848C551.76 96.2 547.544 99.464 542.829 101.64C538.205 103.816 533.355 104.904 528.277 104.904Z" fill="#4A4A4A"/>
<path d="M597.844 104.804C594.625 99.5 592.109 93.992 590.296 88.28C588.528 82.568 587.644 76.2893 587.644 69.444C587.644 62.644 588.528 56.388 590.296 50.676C592.109 44.9187 594.625 39.388 597.844 34.084L604.712 37.008C601.901 41.9947 599.839 47.276 598.524 52.852C597.209 58.428 596.552 63.9587 596.552 69.444C596.552 75.02 597.209 80.596 598.524 86.172C599.839 91.7027 601.901 96.9613 604.712 101.948L597.844 104.804Z" fill="#4A4A4A"/>
<path d="M615.91 53.94H669.086V62.78H615.91V53.94ZM611.422 85.56H673.642V94.468H611.422V85.56ZM637.466 33.132H647.19V91.68H637.466V33.132Z" fill="#4A4A4A"/>
<path d="M687.038 104.804L680.102 101.948C682.958 96.9613 685.043 91.7027 686.358 86.172C687.672 80.596 688.33 75.02 688.33 69.444C688.33 63.9587 687.672 58.428 686.358 52.852C685.043 47.276 682.958 41.9947 680.102 37.008L687.038 34.084C690.256 39.388 692.75 44.9187 694.518 50.676C696.331 56.388 697.238 62.644 697.238 69.444C697.238 76.2893 696.331 82.568 694.518 88.28C692.75 93.992 690.256 99.5 687.038 104.804Z" fill="#4A4A4A"/>
<path d="M716.664 71.72V56.08H754.608V71.72H716.664Z" fill="#4A4A4A"/>
<path d="M798.802 104.904C793.452 104.904 788.647 104.269 784.386 103C780.215 101.821 776.452 100.189 773.098 98.104C769.834 96.0187 767.023 93.5707 764.666 90.76L775.002 76.888C777.994 79.6987 781.303 82.1013 784.93 84.096C788.556 86 792.455 86.952 796.626 86.952C799.98 86.952 802.882 86.4987 805.33 85.592C807.778 84.5947 809.682 83.144 811.042 81.24C812.402 79.2453 813.082 76.888 813.082 74.168C813.082 71.0853 812.311 68.4107 810.77 66.144C809.319 63.8773 806.644 62.1547 802.746 60.976C798.938 59.7973 793.452 59.208 786.29 59.208V43.432C792.274 43.432 796.943 42.8427 800.298 41.664C803.743 40.4853 806.191 38.808 807.642 36.632C809.092 34.456 809.818 31.9627 809.818 29.152C809.818 25.4347 808.73 22.5787 806.554 20.584C804.378 18.4987 801.295 17.456 797.306 17.456C793.86 17.456 790.642 18.2267 787.65 19.768C784.748 21.3093 781.802 23.44 778.81 26.16L767.522 12.56C772.055 8.66133 776.815 5.624 781.802 3.44799C786.879 1.27199 792.364 0.183994 798.258 0.183994C805.058 0.183994 810.951 1.22666 815.938 3.31199C821.015 5.39733 824.959 8.48 827.77 12.56C830.58 16.64 831.986 21.6267 831.986 27.52C831.986 32.688 830.58 37.2213 827.77 41.12C824.959 45.0187 820.879 48.0107 815.53 50.096V50.776C819.247 51.864 822.602 53.5413 825.594 55.808C828.586 57.984 830.943 60.7493 832.666 64.104C834.388 67.368 835.25 71.176 835.25 75.528C835.25 81.784 833.572 87.088 830.218 91.44C826.863 95.792 822.42 99.1467 816.89 101.504C811.45 103.771 805.42 104.904 798.802 104.904Z" fill="#4A4A4A"/>
<path d="M883.48 104.904C876.589 104.904 870.514 102.955 865.256 99.056C859.997 95.0667 855.872 89.128 852.88 81.24C849.978 73.352 848.528 63.6053 848.528 52C848.528 40.3947 849.978 30.784 852.88 23.168C855.872 15.4613 859.997 9.70399 865.256 5.89599C870.514 2.08799 876.589 0.183994 883.48 0.183994C890.552 0.183994 896.672 2.13333 901.84 6.03199C907.098 9.84 911.178 15.552 914.08 23.168C916.981 30.784 918.432 40.3947 918.432 52C918.432 63.6053 916.981 73.352 914.08 81.24C911.178 89.128 907.098 95.0667 901.84 99.056C896.672 102.955 890.552 104.904 883.48 104.904ZM883.48 87.632C886.2 87.632 888.602 86.6347 890.688 84.64C892.773 82.5547 894.405 78.928 895.584 73.76C896.853 68.592 897.488 61.3387 897.488 52C897.488 42.6613 896.853 35.4987 895.584 30.512C894.405 25.4347 892.773 21.944 890.688 20.04C888.602 18.136 886.2 17.184 883.48 17.184C880.85 17.184 878.448 18.136 876.272 20.04C874.186 21.944 872.509 25.4347 871.24 30.512C869.97 35.4987 869.336 42.6613 869.336 52C869.336 61.3387 869.97 68.592 871.24 73.76C872.509 78.928 874.186 82.5547 876.272 84.64C878.448 86.6347 880.85 87.632 883.48 87.632Z" fill="#4A4A4A"/>
<path d="M946.844 104.804C943.625 99.5 941.109 93.992 939.296 88.28C937.528 82.568 936.644 76.2893 936.644 69.444C936.644 62.644 937.528 56.388 939.296 50.676C941.109 44.9187 943.625 39.388 946.844 34.084L953.712 37.008C950.901 41.9947 948.839 47.276 947.524 52.852C946.209 58.428 945.552 63.9587 945.552 69.444C945.552 75.02 946.209 80.596 947.524 86.172C948.839 91.7027 950.901 96.9613 953.712 101.948L946.844 104.804Z" fill="#4A4A4A"/>
<path d="M967.426 37.008H1015.71V96.44H1005.98V46.12H976.742V96.44H967.426V37.008ZM973.818 59.652H1010.06V68.56H973.818V59.652ZM973.818 82.908H1010.06V92.02H973.818V82.908Z" fill="#4A4A4A"/>
<path d="M1036.04 104.804L1029.1 101.948C1031.96 96.9613 1034.04 91.7027 1035.36 86.172C1036.67 80.596 1037.33 75.02 1037.33 69.444C1037.33 63.9587 1036.67 58.428 1035.36 52.852C1034.04 47.276 1031.96 41.9947 1029.1 37.008L1036.04 34.084C1039.26 39.388 1041.75 44.9187 1043.52 50.676C1045.33 56.388 1046.24 62.644 1046.24 69.444C1046.24 76.2893 1045.33 82.568 1043.52 88.28C1041.75 93.992 1039.26 99.5 1036.04 104.804Z" fill="#4A4A4A"/>
</svg>
