<svg width="1153" height="264" viewBox="0 0 1153 264" fill="none" xmlns="http://www.w3.org/2000/svg">
<path d="M624.204 104V43.583C624.204 37.281 624.752 27.828 625.026 21.526H624.478C621.875 27.28 619.135 33.034 616.258 38.651L602.695 61.119H656.673V78.244H581.186V62.9L617.765 2.20898H645.165V104H624.204Z" fill="#4A4A4A"/>
<path d="M506.985 104V85.916H528.768V25.088H510.136V11.251C520.822 9.19598 527.809 6.59299 534.659 2.20898H551.099V85.916H569.868V104H506.985Z" fill="#4A4A4A"/>
<path d="M473.024 105.918C465.215 105.918 459.461 99.753 459.461 91.67C459.461 83.724 465.215 77.559 473.024 77.559C480.833 77.559 486.587 83.724 486.587 91.67C486.587 99.753 480.833 105.918 473.024 105.918Z" fill="#4A4A4A"/>
<path d="M373.479 104V91.259C399.92 67.284 416.634 48.515 416.634 33.308C416.634 23.718 411.428 17.964 402.523 17.964C395.262 17.964 389.645 22.759 384.576 28.239L372.383 16.046C381.973 5.63398 391.289 0.427979 405.4 0.427979C424.854 0.427979 438.143 12.895 438.143 32.075C438.143 50.159 422.936 69.613 405.948 86.464C411.154 85.779 417.867 85.231 422.662 85.231H442.801V104H373.479Z" fill="#4A4A4A"/>
<path d="M296.401 104V85.916H318.184V25.088H299.552V11.251C310.238 9.19598 317.225 6.59299 324.075 2.20898H340.515V85.916H359.284V104H296.401Z" fill="#4A4A4A"/>
<path d="M268.013 105.456C262.085 105.456 257.717 100.776 257.717 94.64C257.717 88.608 262.085 83.928 268.013 83.928C273.941 83.928 278.309 88.608 278.309 94.64C278.309 100.776 273.941 105.456 268.013 105.456Z" fill="#4A4A4A"/>
<path d="M222.918 104V58.136C222.918 53.352 223.334 46.176 223.542 41.392H223.126C221.15 45.76 219.07 50.128 216.886 54.392L206.59 71.448H247.566V84.448H190.262V72.8L218.03 26.728H238.83V104H222.918Z" fill="#4A4A4A"/>
<path d="M130.087 104V94.328C150.159 76.128 162.847 61.88 162.847 50.336C162.847 43.056 158.895 38.688 152.135 38.688C146.623 38.688 142.359 42.328 138.511 46.488L129.255 37.232C136.535 29.328 143.607 25.376 154.319 25.376C169.087 25.376 179.175 34.84 179.175 49.4C179.175 63.128 167.631 77.896 154.735 90.688C158.687 90.168 163.783 89.752 167.423 89.752H182.711V104H130.087Z" fill="#4A4A4A"/>
<path d="M94.5594 105.456C78.5434 105.456 67.7274 91.728 67.7274 65.104C67.7274 38.48 78.5434 25.376 94.5594 25.376C110.575 25.376 121.287 38.584 121.287 65.104C121.287 91.728 110.575 105.456 94.5594 105.456ZM94.5594 92.248C100.591 92.248 105.271 86.528 105.271 65.104C105.271 43.784 100.591 38.48 94.5594 38.48C88.5274 38.48 83.7434 43.784 83.7434 65.104C83.7434 86.528 88.5274 92.248 94.5594 92.248Z" fill="#4A4A4A"/>
<path d="M5.36795 104V94.328C25.44 76.128 38.128 61.88 38.128 50.336C38.128 43.056 34.176 38.688 27.416 38.688C21.904 38.688 17.64 42.328 13.792 46.488L4.53595 37.232C11.8159 29.328 18.8879 25.376 29.5999 25.376C44.368 25.376 54.456 34.84 54.456 49.4C54.456 63.128 42.912 77.896 30.0159 90.688C33.9679 90.168 39.064 89.752 42.704 89.752H57.992V104H5.36795Z" fill="#4A4A4A"/>
<path d="M1035.95 246.156C1040.63 246.156 1044.37 249.9 1044.37 254.528C1044.37 259.208 1040.63 262.952 1035.95 262.952C1031.32 262.952 1027.53 259.208 1027.53 254.528C1027.53 249.9 1031.32 246.156 1035.95 246.156ZM1035.95 259.208C1038.55 259.208 1040.63 257.128 1040.63 254.528C1040.63 251.98 1038.55 249.9 1035.95 249.9C1033.4 249.9 1031.27 251.98 1031.27 254.528C1031.27 257.128 1033.4 259.208 1035.95 259.208Z" fill="#DE0020"/>
<path d="M1013.05 217.088C1012.89 217.972 1012.74 220.728 1012.69 221.56C1012.53 224.992 1012.63 235.6 1012.69 239.76L1006.19 237.576C1006.19 234.352 1006.19 224.368 1005.98 221.612C1005.82 219.532 1005.61 217.764 1005.51 217.088H1013.05ZM983.618 223.588C991.366 223.588 1005.09 223.172 1011.59 223.172C1016.9 223.172 1024.8 223.12 1027.71 223.172L1027.61 229.308C1024.39 229.152 1019.08 228.996 1011.44 228.996C1001.97 228.996 991.626 229.412 983.774 229.828L983.618 223.588ZM1011.8 238.98C1011.8 247.456 1008.68 251.668 1002.7 251.668C998.698 251.668 993.706 248.496 993.706 242.152C993.706 236.276 998.49 232.428 1004.11 232.428C1010.97 232.428 1014.56 237.472 1014.56 243.92C1014.56 250.732 1010.55 259.312 997.866 262.9L992.354 257.388C1001.19 255.464 1008.11 251.98 1008.11 242.88C1008.11 239.5 1006.29 237.888 1004 237.888C1001.97 237.888 999.946 239.292 999.946 242.048C999.946 244.388 1001.87 245.896 1004 245.896C1006.45 245.896 1008.58 243.816 1006.91 237.628L1011.8 238.98Z" fill="#DE0020"/>
<path d="M958.138 216.984C957.982 218.024 957.826 219.324 957.774 220.676C957.67 223.328 957.618 230.712 957.618 235.08C957.618 240.8 958.45 250.212 958.45 254.32C958.45 258.792 955.07 262.224 948.258 262.224C939.938 262.224 935.57 259.052 935.57 253.54C935.57 248.288 940.406 244.596 948.362 244.596C959.802 244.596 968.33 250.212 972.646 253.852L968.902 259.676C963.962 254.996 956.422 249.952 947.53 249.952C943.89 249.952 941.862 251.356 941.862 253.176C941.862 255.152 943.682 256.348 947.27 256.348C950.026 256.348 951.898 255.568 951.898 252.552C951.898 249.432 951.326 240.124 951.326 235.08C951.326 230.088 951.378 223.484 951.378 220.52C951.378 219.584 951.274 217.972 951.066 216.984H958.138ZM936.558 221.82C940.25 222.444 946.23 222.964 949.402 222.964C956.474 222.964 963.286 222.6 970.878 221.404L970.826 227.332C965.522 228.06 957.254 228.684 949.454 228.684C946.126 228.684 940.094 228.216 936.662 227.8L936.558 221.82ZM936.246 233.052C939.678 233.676 946.022 234.04 948.778 234.04C958.398 234.04 965.106 233.416 971.502 232.584L971.45 238.72C964.274 239.552 958.606 239.864 948.726 239.864C945.658 239.864 939.782 239.604 936.35 239.188L936.246 233.052Z" fill="#DE0020"/>
<path d="M894.386 217.764C894.074 219.948 893.814 222.652 893.71 224.732C893.45 230.348 893.086 241.944 893.086 248.392C893.086 253.644 896.206 255.36 900.262 255.36C908.842 255.36 914.25 250.42 918.046 244.752L922.778 250.524C919.398 255.516 912.014 262.432 900.158 262.432C891.63 262.432 886.17 258.688 886.17 249.796C886.17 242.828 886.638 229.204 886.638 224.732C886.638 222.236 886.43 219.74 886.014 217.712L894.386 217.764Z" fill="#DE0020"/>
<path d="M847.69 217.504C847.326 218.96 846.858 221.3 846.598 222.444C845.87 225.98 844.57 232.324 843.166 237.628C841.294 244.908 837.81 255.516 834.95 261.704L827.722 259.26C830.79 254.008 834.742 243.14 836.718 235.86C838.018 230.972 839.214 225.252 839.578 222.184C839.838 220.26 839.89 218.128 839.734 216.88L847.69 217.504ZM834.43 225.304C840.774 225.304 848.106 224.316 854.866 222.704V229.204C848.418 230.712 840.254 231.596 834.378 231.596C831.83 231.596 829.906 231.492 828.086 231.388L827.878 224.888C830.582 225.2 832.298 225.304 834.43 225.304ZM850.758 233.26C853.67 232.948 857.414 232.74 860.794 232.74C863.758 232.74 866.878 232.896 869.894 233.208L869.79 239.448C867.138 239.136 863.966 238.772 860.846 238.772C857.258 238.772 854.034 238.928 850.758 239.344V233.26ZM853.566 246.312C853.202 247.82 852.89 249.484 852.89 250.628C852.89 252.916 854.398 254.632 860.014 254.632C863.498 254.632 867.086 254.268 870.778 253.592L870.518 260.196C867.606 260.612 864.122 260.924 859.962 260.924C851.174 260.924 846.494 257.96 846.494 252.708C846.494 250.264 846.962 247.768 847.378 245.74L853.566 246.312Z" fill="#DE0020"/>
<path d="M784.562 221.872C784.198 223.692 783.938 226.76 783.938 228.216C783.938 231.596 783.938 235.444 784.25 239.24C784.978 246.728 786.538 251.876 789.814 251.876C792.31 251.876 794.338 245.74 795.326 241.632L800.578 247.924C797.094 257.024 793.87 260.144 789.71 260.144C783.938 260.144 778.998 255.048 777.542 241.112C777.022 236.328 776.97 230.192 776.97 227.02C776.97 225.616 776.918 223.38 776.554 221.768L784.562 221.872ZM810.562 223.016C815.502 228.996 819.506 241.996 820.078 249.952L813.214 252.656C812.434 244.232 809.626 231.648 803.958 225.2L810.562 223.016Z" fill="#DE0020"/>
<path d="M758.874 218.232C758.718 219.064 758.614 221.352 758.562 222.704C758.458 226.24 758.458 229.204 758.354 231.856C758.25 236.484 758.094 242.1 757.574 244.752C757.002 247.508 755.65 248.184 752.998 248.184C751.178 248.184 746.966 247.716 745.198 247.404L745.302 241.684C746.914 242.048 749.098 242.308 750.138 242.308C751.126 242.308 751.594 242.152 751.75 241.112C752.01 239.136 752.114 235.392 752.218 231.804C752.218 229.1 752.218 226.084 752.218 223.016C752.218 221.664 752.01 219.22 751.854 218.232H758.874ZM738.386 219.792C738.178 221.508 738.074 222.964 738.074 225.2C738.074 229.932 737.866 243.66 737.97 247.924C738.126 253.072 738.542 254.216 746.342 254.216C751.438 254.216 758.042 253.592 761.89 252.864L761.63 259.988C758.146 260.352 751.802 260.82 746.81 260.82C733.394 260.82 731.73 257.96 731.522 248.964C731.418 244.492 731.47 228.684 731.47 225.564C731.47 223.38 731.314 221.612 731.054 219.792H738.386ZM721.018 231.544C722.474 231.544 724.866 231.44 727.518 231.128C732.77 230.66 752.322 228.736 762.358 228.112C763.762 228.008 765.79 227.852 767.35 227.748V234.092C766.414 234.04 763.658 234.144 762.306 234.144C754.194 234.404 733.966 236.588 727.934 237.264C726.322 237.472 723.098 237.94 721.694 238.148L721.018 231.544Z" fill="#DE0020"/>
<path d="M685.425 217.14C690.365 218.7 701.701 220.728 706.277 221.196L704.717 227.592C699.413 226.864 687.869 224.472 683.813 223.432L685.425 217.14ZM685.789 227.592C685.061 230.504 684.177 236.796 683.813 239.812C688.493 236.38 693.693 234.82 699.153 234.82C708.253 234.82 713.557 240.436 713.557 246.728C713.557 256.244 706.017 263.524 684.437 261.652L682.409 254.84C698.061 257.024 706.277 253.228 706.277 246.572C706.277 243.192 703.105 240.748 698.529 240.748C692.653 240.748 687.401 242.932 684.125 246.884C683.189 247.976 682.617 248.808 682.201 249.848L676.169 248.392C677.209 243.296 678.457 233.104 678.769 226.656L685.789 227.592Z" fill="#DE0020"/>
<path d="M646.737 252.552H660.985V258.376H646.737V252.552ZM643.929 219.324H663.897V261.444H657.553V225.2H649.961V262.172H643.929V219.324ZM627.705 224.212H633.997V234.248C633.997 243.088 632.125 255.932 621.673 263.524C620.893 262.224 618.501 259.728 617.253 258.844C626.769 251.98 627.705 241.788 627.705 234.144V224.212ZM623.441 221.456H641.277V227.228H623.441V221.456ZM618.033 235.444H642.577V241.372H618.033V235.444ZM632.437 242.776C634.569 244.648 641.433 252.5 643.045 254.424L638.833 259.676C636.389 255.828 631.293 249.38 628.641 246.312L632.437 242.776ZM622.869 214.852L628.849 216.048C627.497 222.912 625.001 229.776 622.037 234.144C620.945 233.156 618.397 231.388 617.045 230.556C619.853 226.812 621.829 220.832 622.869 214.852Z" fill="#DE0020"/>
<path d="M586.781 216.776C586.573 217.764 586.365 220 586.313 221.3C586.053 225.408 585.897 231.024 585.897 235.86C585.897 241.528 586.209 250.524 586.209 253.54C586.209 259.936 583.921 261.704 580.489 261.704C575.445 261.704 568.269 257.336 568.269 251.824C568.269 246.78 574.769 241.476 581.997 238.928C586.625 237.264 591.877 236.432 595.829 236.432C603.837 236.432 610.181 240.592 610.181 247.768C610.181 253.956 606.957 258.584 598.689 260.612C596.297 261.132 593.957 261.288 591.825 261.496L589.485 254.736C591.773 254.736 594.061 254.736 595.829 254.372C600.041 253.644 603.421 251.512 603.421 247.768C603.421 244.18 600.301 242.152 595.777 242.152C591.357 242.152 586.781 243.088 582.725 244.7C578.045 246.468 574.717 249.276 574.717 251.512C574.717 253.176 577.161 254.58 578.513 254.58C579.449 254.58 580.125 254.164 580.125 252.344C580.125 249.64 579.865 242.412 579.865 236.12C579.865 230.192 579.917 223.744 579.917 221.352C579.917 220.312 579.761 217.712 579.605 216.776H586.781ZM601.601 222.444C605.553 224.368 611.585 227.748 614.393 229.724L611.221 235.028C608.725 232.948 601.965 229.048 598.741 227.488L601.601 222.444ZM569.673 225.304C572.741 225.668 574.977 225.668 576.849 225.668C582.257 225.668 590.369 224.68 595.725 223.12L595.881 229.568C590.005 230.92 581.633 231.856 577.057 231.856C573.625 231.856 571.597 231.804 569.829 231.596L569.673 225.304Z" fill="#DE0020"/>
<path d="M515.697 223.38C517.725 223.328 519.805 223.224 520.793 223.12C525.109 222.704 533.689 221.976 543.205 221.144C548.613 220.728 554.281 220.364 557.973 220.208L558.025 226.916C555.217 226.916 550.745 226.968 547.937 227.592C541.697 229.256 536.965 236.016 536.965 242.204C536.965 250.732 544.973 253.852 553.761 254.268L551.317 261.392C540.449 260.716 530.153 254.84 530.153 243.556C530.153 236.12 534.365 230.192 537.849 227.54C533.013 228.06 522.353 229.204 516.373 230.504L515.697 223.38ZM550.589 232.012C551.837 233.832 553.709 237.004 554.697 239.084L550.797 240.8C549.445 237.992 548.353 235.912 546.741 233.624L550.589 232.012ZM556.361 229.62C557.713 231.44 559.689 234.508 560.781 236.536L556.881 238.408C555.477 235.6 554.281 233.624 552.617 231.336L556.361 229.62Z" fill="#DE0020"/>
<path d="M498.017 219.116C499.473 221.3 501.605 224.732 502.749 227.124L498.277 229.1C496.717 225.824 495.573 223.588 493.649 220.884L498.017 219.116ZM505.193 216.568C506.805 218.648 508.833 222.08 510.081 224.368L505.609 226.344C503.945 223.068 502.697 221.04 500.773 218.44L505.193 216.568ZM475.449 218.076C478.881 219.948 484.601 223.64 487.305 225.512L483.405 231.284C480.545 229.256 475.085 225.72 471.653 223.796L475.449 218.076ZM465.829 254.996C471.601 254.008 477.841 252.292 483.509 249.172C492.349 244.232 499.577 237.108 503.737 229.672L507.741 236.744C502.905 243.92 495.573 250.524 487.045 255.412C481.793 258.428 474.305 261.028 469.729 261.86L465.829 254.996ZM467.441 229.932C470.925 231.804 476.645 235.392 479.297 237.264L475.501 243.088C472.537 241.06 467.181 237.524 463.645 235.704L467.441 229.932Z" fill="#DE0020"/>
<path d="M413.857 234.924C415.781 235.08 419.525 235.288 422.229 235.288C428.365 235.288 445.525 235.288 450.153 235.288C452.597 235.288 454.885 235.028 456.289 234.924V243.14C455.041 243.088 452.389 242.828 450.205 242.828C445.473 242.828 428.365 242.828 422.229 242.828C419.317 242.828 415.833 242.984 413.857 243.14V234.924Z" fill="#DE0020"/>
<path d="M394.669 227.176C394.669 228.996 396.177 230.504 397.997 230.504C399.817 230.504 401.273 228.996 401.273 227.176C401.273 225.356 399.817 223.9 397.997 223.9C396.177 223.9 394.669 225.356 394.669 227.176ZM391.237 227.176C391.237 223.432 394.253 220.416 397.997 220.416C401.741 220.416 404.757 223.432 404.757 227.176C404.757 230.92 401.741 233.936 397.997 233.936C394.253 233.936 391.237 230.92 391.237 227.176ZM358.945 244.232C360.453 242.932 361.597 241.84 363.209 240.228C365.549 237.888 369.605 232.792 373.193 228.528C376.313 224.836 379.381 224.264 383.385 228.06C386.921 231.388 390.873 235.496 393.993 238.876C397.477 242.62 402.833 248.34 406.837 252.604L401.065 258.792C397.581 254.476 393.213 249.068 390.145 245.48C387.077 241.892 382.501 236.848 380.629 234.924C378.913 233.26 377.821 233.364 376.365 235.236C374.285 237.888 370.645 242.984 368.513 245.844C367.317 247.456 366.121 249.328 365.185 250.68L358.945 244.232Z" fill="#DE0020"/>
<path d="M327.641 214.852H334.557V236.172H327.641V214.852ZM310.585 219.116L316.305 216.88C319.009 220.52 321.609 225.356 322.701 228.632L316.669 231.232C315.733 227.852 313.133 222.808 310.585 219.116ZM345.113 216.412L352.081 218.44C349.845 223.12 347.089 228.112 344.905 231.388L339.341 229.464C341.421 225.928 343.865 220.52 345.113 216.412ZM311.833 232.896H351.197V263.68H344.541V239.136H311.833V232.896ZM313.601 243.92H346.933V249.952H313.601V243.92ZM310.637 255.308H348.025V261.548H310.637V255.308Z" fill="#DE0020"/>
<path d="M266.385 262.588C263.213 258.74 258.793 254.268 255.153 251.148L260.613 246.468C264.305 249.484 269.297 254.58 271.949 257.804L266.385 262.588Z" fill="#DE0020"/>
<path d="M213.241 237.42H240.229V234.196H207.885V229.152H246.365V242.516H213.241V237.42ZM209.809 237.42H216.049C215.061 242.36 213.709 248.184 212.617 251.98L206.377 251.252C207.573 247.56 208.977 241.996 209.809 237.42ZM211.993 245.584H244.753V250.784H210.433L211.993 245.584ZM243.141 245.584H249.381C249.381 245.584 249.329 247.04 249.225 247.82C248.705 254.736 248.081 258.116 246.781 259.572C245.637 260.768 244.389 261.184 242.777 261.34C241.321 261.548 238.825 261.548 236.173 261.496C236.069 259.676 235.341 257.336 234.405 255.776C236.589 256.036 238.773 256.088 239.709 256.036C240.541 256.036 241.009 255.984 241.529 255.568C242.257 254.84 242.725 252.344 243.141 246.312V245.584ZM223.901 230.348H230.037V263.68H223.901V230.348ZM222.653 247.456L227.489 249.536C222.809 255.412 214.957 260.56 207.417 263.16C206.533 261.652 204.765 259.416 203.465 258.22C210.797 256.192 218.701 252.032 222.653 247.456ZM209.965 218.856H226.345V223.64H209.965V218.856ZM230.609 218.856H250.785V223.64H230.609V218.856ZM210.225 214.436L215.997 215.996C213.865 221.144 210.381 226.448 207.105 229.672C205.961 228.736 203.465 227.124 202.009 226.344C205.389 223.484 208.457 218.908 210.225 214.436ZM231.389 214.436L237.265 215.944C235.289 221.092 231.909 226.084 228.529 229.256C227.385 228.216 224.837 226.552 223.381 225.772C226.865 223.12 229.829 218.804 231.389 214.436ZM211.889 222.652L216.881 220.52C218.233 222.548 219.793 225.408 220.469 227.228L215.165 229.568C214.645 227.696 213.241 224.836 211.889 222.652ZM234.457 222.6L239.605 220.78C241.269 222.704 243.193 225.408 244.077 227.28L238.669 229.36C237.941 227.54 236.121 224.68 234.457 222.6Z" fill="#DE0020"/>
<path d="M171.225 215.06L177.725 216.204C175.697 225.46 172.161 234.144 167.897 239.656C166.597 238.668 163.633 237.004 161.969 236.276C166.441 231.44 169.613 223.328 171.225 215.06ZM180.845 229.672H184.069V235.392C184.069 241.06 187.189 252.396 200.033 258.012C198.837 259.52 196.965 262.12 195.977 263.68C186.669 259.416 181.781 250.212 180.793 245.532C179.545 250.212 174.241 259.104 163.685 263.68C162.957 262.224 160.981 259.572 159.889 258.428C173.981 252.812 177.465 241.32 177.465 235.392V229.672H180.845ZM150.529 250.992C153.441 248.184 158.121 243.4 162.437 238.668L165.973 244.024C162.385 248.236 158.121 252.812 154.533 256.348L150.529 250.992ZM152.037 222.652L156.457 218.076C159.577 220.104 163.789 223.224 165.817 225.46L161.085 230.608C159.265 228.32 155.209 224.94 152.037 222.652ZM173.461 223.848H194.781V230.036H170.393L173.461 223.848ZM192.701 223.848H193.637L194.833 223.484L199.461 226.188C197.953 231.44 195.457 236.848 193.429 240.54C192.129 239.864 189.633 238.564 188.125 237.992C189.789 234.82 191.921 229.308 192.701 225.2V223.848Z" fill="#DE0020"/>
<path d="M108.721 230.556H137.477V236.484H108.721V230.556ZM123.073 243.036H140.649V248.86H123.073V243.036ZM119.797 233.988H126.349V259.104L119.797 258.324V233.988ZM107.369 239.396L113.921 240.072C112.569 250.628 109.345 258.896 103.417 263.992C102.377 262.9 99.725 260.664 98.269 259.728C103.885 255.568 106.485 248.34 107.369 239.396ZM112.413 245.896C115.741 255.464 123.021 256.92 132.277 256.92C135.033 256.92 143.717 256.92 147.201 256.816C146.317 258.272 145.277 261.288 145.017 263.16H131.913C119.901 263.16 111.789 260.716 107.317 247.612L112.413 245.896ZM119.693 214.904H126.349V224.42H119.693V214.904ZM100.765 220.156H145.485V233.208H139.037V226.084H106.901V233.208H100.765V220.156Z" fill="#DE0020"/>
<path d="M73.621 240.124H93.121V244.648H73.621V240.124ZM73.621 248.34H93.121V252.916H73.621V248.34ZM73.517 256.556H95.513V261.704H73.517V256.556ZM65.873 219.688H95.253V229.204H89.741V224.94H71.177V229.204H65.873V219.688ZM80.693 235.756H86.413V259H80.693V235.756ZM75.545 231.44H94.265V236.64H75.545V263.732H69.721V236.848L74.973 231.44H75.545ZM78.301 214.8L84.229 215.892C81.421 227.176 76.221 236.172 68.577 241.788C67.745 240.592 65.613 238.148 64.365 237.108C71.489 232.428 76.117 224.524 78.301 214.8ZM83.865 226.188L89.637 227.384C88.285 230.244 86.881 233.052 85.737 234.976L81.057 233.78C82.097 231.648 83.293 228.476 83.865 226.188ZM47.569 217.92H66.341V223.588H47.569V217.92ZM53.445 233.208H65.509V257.44H53.445V252.084H60.257V238.616H53.445V233.208ZM52.925 220.936L58.801 221.872C57.241 233.104 54.433 244.128 49.129 251.2C48.557 249.744 46.893 246.572 45.801 245.168C49.857 239.448 51.885 230.452 52.925 220.936ZM51.001 233.208H56.045V261.444H51.001V233.208Z" fill="#DE0020"/>
<path d="M1122.79 180.156C1127.47 180.156 1131.22 183.9 1131.22 188.528C1131.22 193.208 1127.47 196.952 1122.79 196.952C1118.17 196.952 1114.37 193.208 1114.37 188.528C1114.37 183.9 1118.17 180.156 1122.79 180.156ZM1122.79 193.208C1125.39 193.208 1127.47 191.128 1127.47 188.528C1127.47 185.98 1125.39 183.9 1122.79 183.9C1120.25 183.9 1118.11 185.98 1118.11 188.528C1118.11 191.128 1120.25 193.208 1122.79 193.208Z" fill="#DE0020"/>
<path d="M1085.35 151.504C1084.99 152.96 1084.52 155.3 1084.26 156.444C1083.53 159.98 1082.23 166.324 1080.83 171.628C1078.96 178.908 1075.47 189.516 1072.61 195.704L1065.39 193.26C1068.45 188.008 1072.41 177.14 1074.38 169.86C1075.68 164.972 1076.88 159.252 1077.24 156.184C1077.5 154.26 1077.55 152.128 1077.4 150.88L1085.35 151.504ZM1072.09 159.304C1078.44 159.304 1085.77 158.316 1092.53 156.704V163.204C1086.08 164.712 1077.92 165.596 1072.04 165.596C1069.49 165.596 1067.57 165.492 1065.75 165.388L1065.54 158.888C1068.25 159.2 1069.96 159.304 1072.09 159.304ZM1088.42 167.26C1091.33 166.948 1095.08 166.74 1098.46 166.74C1101.42 166.74 1104.54 166.896 1107.56 167.208L1107.45 173.448C1104.8 173.136 1101.63 172.772 1098.51 172.772C1094.92 172.772 1091.7 172.928 1088.42 173.344V167.26ZM1091.23 180.312C1090.87 181.82 1090.55 183.484 1090.55 184.628C1090.55 186.916 1092.06 188.632 1097.68 188.632C1101.16 188.632 1104.75 188.268 1108.44 187.592L1108.18 194.196C1105.27 194.612 1101.79 194.924 1097.63 194.924C1088.84 194.924 1084.16 191.96 1084.16 186.708C1084.16 184.264 1084.63 181.768 1085.04 179.74L1091.23 180.312Z" fill="#DE0020"/>
<path d="M1028.05 151.764C1027.74 153.948 1027.48 156.652 1027.37 158.732C1027.11 164.348 1026.75 175.944 1026.75 182.392C1026.75 187.644 1029.87 189.36 1033.93 189.36C1042.51 189.36 1047.91 184.42 1051.71 178.752L1056.44 184.524C1053.06 189.516 1045.68 196.432 1033.82 196.432C1025.29 196.432 1019.83 192.688 1019.83 183.796C1019.83 176.828 1020.3 163.204 1020.3 158.732C1020.3 156.236 1020.09 153.74 1019.68 151.712L1028.05 151.764Z" fill="#DE0020"/>
<path d="M987.803 150.984C987.647 152.024 987.491 153.324 987.439 154.676C987.335 157.328 987.283 164.712 987.283 169.08C987.283 174.8 988.115 184.212 988.115 188.32C988.115 192.792 984.735 196.224 977.923 196.224C969.603 196.224 965.235 193.052 965.235 187.54C965.235 182.288 970.071 178.596 978.027 178.596C989.467 178.596 997.995 184.212 1002.31 187.852L998.567 193.676C993.627 188.996 986.087 183.952 977.195 183.952C973.555 183.952 971.527 185.356 971.527 187.176C971.527 189.152 973.347 190.348 976.935 190.348C979.691 190.348 981.563 189.568 981.563 186.552C981.563 183.432 980.991 174.124 980.991 169.08C980.991 164.088 981.043 157.484 981.043 154.52C981.043 153.584 980.939 151.972 980.731 150.984H987.803ZM966.223 155.82C969.915 156.444 975.895 156.964 979.067 156.964C986.139 156.964 992.951 156.6 1000.54 155.404L1000.49 161.332C995.187 162.06 986.919 162.684 979.119 162.684C975.791 162.684 969.759 162.216 966.327 161.8L966.223 155.82ZM965.911 167.052C969.343 167.676 975.687 168.04 978.443 168.04C988.063 168.04 994.771 167.416 1001.17 166.584L1001.11 172.72C993.939 173.552 988.271 173.864 978.391 173.864C975.323 173.864 969.447 173.604 966.015 173.188L965.911 167.052Z" fill="#DE0020"/>
<path d="M923.531 151.244C922.803 153.792 921.711 159.148 921.399 162.06C923.895 158.056 928.471 153.636 934.295 153.636C941.523 153.636 947.139 160.76 947.139 172.2C947.139 186.916 938.143 193.884 924.363 196.432L920.411 190.4C932.007 188.632 940.119 184.784 940.119 172.2C940.119 164.192 937.415 159.72 933.099 159.72C926.963 159.72 921.555 168.976 921.347 175.788C921.243 177.244 921.295 178.908 921.555 181.3L915.159 181.768C914.847 179.74 914.535 176.568 914.535 173.084C914.535 168.196 915.211 161.8 915.991 156.392C916.199 154.468 916.355 152.388 916.407 150.984L923.531 151.244Z" fill="#DE0020"/>
<path d="M857.023 158.94C859.259 159.2 862.067 159.304 863.939 159.304C870.387 159.304 877.407 158.212 882.451 156.6L882.607 162.632C878.135 163.88 870.647 165.232 863.991 165.18C861.911 165.18 859.727 165.128 857.491 165.024L857.023 158.94ZM877.251 151.14C876.575 153.896 875.327 158.992 873.923 163.412C871.531 170.9 866.851 180.572 862.431 186.708L856.139 183.484C860.819 177.764 865.499 168.664 867.527 163.048C868.775 159.304 869.919 154.468 870.075 150.464L877.251 151.14ZM889.471 167.364C889.315 169.548 889.367 171.732 889.419 174.02C889.523 177.088 889.991 184.836 889.991 187.748C889.991 192.584 887.391 196.38 879.955 196.38C873.507 196.38 868.411 193.468 868.411 187.748C868.411 182.704 872.675 178.752 879.903 178.752C889.003 178.752 896.179 183.328 900.495 187.228L897.063 192.844C893.319 189.36 887.391 184.004 879.539 184.004C876.523 184.004 874.547 185.304 874.547 187.124C874.547 189.048 876.211 190.4 879.071 190.4C882.607 190.4 883.751 188.424 883.751 185.512C883.751 182.392 883.179 172.824 882.919 167.364H889.471ZM898.415 170.12C895.399 167.676 889.471 164.296 885.883 162.684L889.263 157.588C893.007 159.2 899.403 162.684 902.107 164.608L898.415 170.12Z" fill="#DE0020"/>
<path d="M845.649 162.684C844.037 163.62 842.373 164.556 840.449 165.492C837.225 167.104 830.725 170.172 825.941 173.24C821.625 176.048 818.713 179.064 818.713 182.652C818.713 186.396 822.353 188.424 829.581 188.424C834.885 188.424 841.905 187.592 846.533 186.5L846.481 193.988C842.009 194.716 836.549 195.288 829.789 195.288C819.389 195.288 811.537 192.376 811.537 183.432C811.537 176.828 816.373 172.2 822.561 168.144C827.501 164.868 834.053 161.644 837.225 159.824C839.201 158.68 840.657 157.796 842.009 156.704L845.649 162.684ZM819.493 151.556C821.989 158.472 825.265 164.712 827.709 169.08L821.781 172.512C818.921 167.78 815.801 160.968 812.941 154.26L819.493 151.556Z" fill="#DE0020"/>
<path d="M753.453 151.192H799.265V156.756H753.453V151.192ZM773.473 153.584H780.025V174.592C780.025 185.096 775.709 193.832 756.105 197.732C755.429 196.328 753.661 193.624 752.309 192.22C771.081 189.36 773.473 182.808 773.473 174.488V153.584ZM763.853 172.876V176.308H789.749V172.876H763.853ZM763.853 164.868V168.196H789.749V164.868H763.853ZM757.977 159.824H795.989V181.3H757.977V159.824ZM764.165 181.092C771.445 190.4 783.613 191.128 801.345 190.972C800.253 192.428 799.057 195.08 798.745 197.16C780.389 196.796 766.661 195.08 758.705 183.276L764.165 181.092Z" fill="#DE0020"/>
<path d="M701.297 153.324H747.525V159.096H701.297V153.324ZM721.057 148.852H727.505V155.716H721.057V148.852ZM728.025 155.664H734.109V168.456C734.109 171.16 733.693 172.616 731.821 173.5C730.053 174.384 727.661 174.436 724.541 174.436C724.281 172.772 723.553 170.536 722.825 168.924C724.645 168.976 726.621 168.976 727.245 168.976C727.869 168.976 728.025 168.872 728.025 168.3V155.664ZM717.469 154.884H723.293V158.992C723.293 164.452 722.409 171.524 714.713 176.36C713.777 175.06 711.593 173.032 710.189 172.096C716.741 168.248 717.469 162.944 717.469 158.836V154.884ZM735.565 163.412L740.401 160.604C743.365 163.516 747.005 167.624 748.669 170.432L743.469 173.552C742.013 170.744 738.529 166.48 735.565 163.412ZM707.953 160.812L713.777 162.372C711.593 166.48 708.161 170.692 704.521 173.188C703.429 172.096 701.453 170.432 700.205 169.6C703.533 167.52 706.549 163.932 707.953 160.812ZM716.585 179.584C721.889 187.384 733.225 191.024 749.085 191.804C747.785 193.26 746.225 195.912 745.445 197.68C728.753 196.276 717.833 191.596 711.021 181.352L716.585 179.584ZM717.885 172.616L724.385 173.864C720.173 179.896 714.245 184.68 705.249 188.32C704.417 186.864 702.649 184.628 701.349 183.692C709.669 180.936 715.077 176.828 717.885 172.616ZM717.781 176.412H736.189V181.352H713.413L717.781 176.412ZM734.473 176.412H735.825L736.865 176.204L740.921 178.908C734.213 190.972 719.237 195.912 702.753 197.784C702.233 196.276 700.881 193.52 699.789 192.22C715.753 190.972 729.481 186.916 734.473 177.4V176.412Z" fill="#DE0020"/>
<path d="M669.577 156.652C675.973 157.536 686.373 157.276 691.937 156.6V163.308C685.593 163.932 676.129 163.932 669.629 163.308L669.577 156.652ZM673.737 178.856C673.321 180.624 673.113 181.872 673.113 183.224C673.113 185.564 675.141 186.968 680.445 186.968C685.073 186.968 688.921 186.552 693.445 185.564L693.601 192.584C690.221 193.26 686.009 193.624 680.133 193.624C671.189 193.624 666.873 190.4 666.873 185.096C666.873 183.016 667.185 180.988 667.809 178.336L673.737 178.856ZM661.569 153.168C661.205 154.26 660.529 156.912 660.321 157.848C659.593 161.28 657.773 171.68 657.773 176.88C657.773 177.92 657.825 179.22 657.981 180.26C658.761 178.492 659.593 176.724 660.373 174.956L663.597 177.504C662.089 181.872 660.373 187.488 659.853 190.244C659.697 191.024 659.541 192.168 659.541 192.688C659.593 193.26 659.593 194.144 659.645 194.872L653.665 195.236C652.625 191.7 651.637 185.356 651.637 178.284C651.637 170.432 653.197 161.696 653.769 157.64C653.977 156.236 654.237 154.26 654.289 152.596L661.569 153.168Z" fill="#DE0020"/>
<path d="M598.441 150.152H604.473V179.844C604.473 182.028 604.629 182.34 605.721 182.34C606.189 182.34 608.217 182.34 608.789 182.34C609.933 182.34 610.141 180.936 610.297 174.696C611.649 175.788 614.093 176.828 615.809 177.192C615.237 185.512 613.729 188.32 609.413 188.32C608.425 188.32 605.617 188.32 604.681 188.32C599.793 188.32 598.441 186.396 598.441 179.844V150.152ZM610.817 158.264L615.341 162.58C611.441 165.648 606.605 168.872 602.965 170.9L599.429 167.156C602.965 165.024 607.905 161.228 610.817 158.264ZM614.873 150.88H644.045V156.132H614.873V150.88ZM623.141 171.888V175.164H636.713V171.888H623.141ZM623.141 179.48V182.808H636.713V179.48H623.141ZM623.141 164.348V167.624H636.713V164.348H623.141ZM617.369 159.772H642.849V187.332H617.369V159.772ZM626.521 153.74L633.801 154.572C632.657 157.848 631.357 161.176 630.421 163.412L624.857 162.372C625.533 159.876 626.261 156.34 626.521 153.74ZM622.777 187.124L627.821 190.712C624.389 193.312 618.877 196.068 614.301 197.576C613.417 196.328 611.701 194.456 610.453 193.26C614.873 191.908 620.125 189.256 622.777 187.124ZM630.681 190.764L635.309 187.436C638.585 189.204 643.213 192.012 645.657 193.988L640.717 197.68C638.585 195.756 634.061 192.74 630.681 190.764Z" fill="#DE0020"/>
<path d="M556.321 151.296H582.321V157.38H556.321V151.296ZM556.373 163.724H582.581V169.652H556.373V163.724ZM556.113 176.048H582.217V182.08H556.113V176.048ZM552.057 151.296H558.453V168.508C558.453 177.556 557.049 190.296 548.261 197.68C547.325 196.38 544.777 194.04 543.425 193.208C551.329 186.5 552.057 176.464 552.057 168.508V151.296ZM579.409 151.296H586.013V189.776C586.013 193.468 585.129 195.34 582.737 196.38C580.241 197.472 576.549 197.576 571.141 197.576C570.777 195.704 569.581 192.688 568.541 191.024C572.233 191.232 576.549 191.18 577.797 191.18C578.993 191.128 579.409 190.764 579.409 189.672V151.296Z" fill="#DE0020"/>
<path d="M520.322 193.84C513.302 193.84 508.562 191.26 505.442 187.66L509.642 182.08C512.282 184.66 515.462 186.7 519.482 186.7C524.042 186.7 527.102 184.42 527.102 180.46C527.102 176.08 524.522 173.38 514.862 173.38V167.02C523.022 167.02 525.662 164.26 525.662 160.3C525.662 156.82 523.502 154.72 519.722 154.72C516.542 154.72 513.962 156.22 511.322 158.68L506.822 153.22C510.662 149.92 514.922 147.82 520.082 147.82C528.662 147.82 534.482 152.02 534.482 159.64C534.482 164.38 531.842 167.92 527.102 169.72V170.02C532.142 171.46 535.982 175.12 535.982 181C535.982 189.16 528.842 193.84 520.322 193.84Z" fill="#DE0020"/>
<path d="M462.238 148.644L468.582 150.256C465.826 158.004 461.25 165.492 456.622 170.172C455.426 169.08 452.774 167 451.266 166.116C455.946 162.06 460.002 155.404 462.238 148.644ZM463.33 154.572H496.402V160.604H460.314L463.33 154.572ZM459.638 166.844H495.206V172.668H465.93V183.588H459.638V166.844ZM451.422 180.52H499.262V186.552H451.422V180.52ZM474.926 157.692H481.374V197.68H474.926V157.692Z" fill="#DE0020"/>
<path d="M427.512 193.84C420.492 193.84 415.812 191.08 412.452 187.78L416.592 182.2C419.052 184.66 422.232 186.7 426.312 186.7C430.992 186.7 434.172 183.76 434.172 178.48C434.172 173.32 431.172 170.44 426.732 170.44C424.092 170.44 422.652 171.1 420.072 172.78L415.992 170.14L417.252 148.6H441.012V155.98H424.872L424.032 165.4C425.772 164.62 427.332 164.2 429.372 164.2C436.812 164.2 443.052 168.58 443.052 178.3C443.052 188.14 435.672 193.84 427.512 193.84Z" fill="#DE0020"/>
<path d="M378.081 193V187.96C390.201 177.1 397.281 168.76 397.281 161.92C397.281 157.48 394.941 154.72 390.681 154.72C387.381 154.72 384.801 156.82 382.521 159.34L377.661 154.54C381.741 150.16 385.761 147.82 391.821 147.82C400.161 147.82 405.801 153.16 405.801 161.44C405.801 169.54 399.081 178.18 390.981 186.1C393.201 185.86 396.141 185.56 398.241 185.56H407.841V193H378.081Z" fill="#DE0020"/>
<path d="M357.87 193.84C348.81 193.84 342.81 185.98 342.81 170.62C342.81 155.32 348.81 147.82 357.87 147.82C366.87 147.82 372.87 155.32 372.87 170.62C372.87 185.98 366.87 193.84 357.87 193.84ZM357.87 186.94C361.71 186.94 364.53 183.1 364.53 170.62C364.53 158.2 361.71 154.6 357.87 154.6C354.03 154.6 351.15 158.2 351.15 170.62C351.15 183.1 354.03 186.94 357.87 186.94Z" fill="#DE0020"/>
<path d="M307.3 193V187.96C319.42 177.1 326.5 168.76 326.5 161.92C326.5 157.48 324.16 154.72 319.9 154.72C316.6 154.72 314.02 156.82 311.74 159.34L306.88 154.54C310.96 150.16 314.98 147.82 321.04 147.82C329.38 147.82 335.02 153.16 335.02 161.44C335.02 169.54 328.3 178.18 320.2 186.1C322.42 185.86 325.36 185.56 327.46 185.56H337.06V193H307.3Z" fill="#DE0020"/>
<path d="M276.388 152.336C276.076 153.688 275.764 155.352 275.504 156.652C274.984 158.992 274.36 162.216 273.788 164.868C272.072 172.2 267.912 187.02 262.452 195.808L255.64 193.104C261.828 184.784 265.728 171.056 267.184 164.504C268.172 159.824 268.744 155.404 268.692 151.504L276.388 152.336ZM294.328 157.536C297.5 162.06 301.868 171.732 303.48 176.672L296.876 179.74C295.524 173.968 291.832 164.816 288.088 160.188L294.328 157.536ZM255.328 162.996C257.2 163.1 258.968 163.048 260.892 162.996C265.052 162.892 274.932 161.748 278.78 161.748C284.292 161.748 288.192 164.192 288.192 171.732C288.192 177.868 287.412 186.292 285.228 190.764C283.512 194.404 280.6 195.548 276.7 195.548C274.672 195.548 272.228 195.236 270.46 194.82L269.316 187.956C271.344 188.528 274.308 189.048 275.66 189.048C277.428 189.048 278.78 188.528 279.56 186.812C281.016 183.9 281.692 177.556 281.692 172.46C281.692 168.3 279.924 167.676 276.648 167.676C273.58 167.676 264.584 168.82 261.724 169.184C260.216 169.392 257.512 169.756 255.952 170.016L255.328 162.996ZM293.392 150.36C294.692 152.232 296.512 155.56 297.5 157.484L293.34 159.252C292.248 157.12 290.636 154.052 289.232 152.024L293.392 150.36ZM299.528 147.968C300.88 149.944 302.804 153.272 303.74 155.092L299.58 156.86C298.54 154.676 296.824 151.66 295.42 149.684L299.528 147.968Z" fill="#DE0020"/>
<path d="M223.036 154.364H249.608V159.772H223.036V154.364ZM221.268 164.348H251.168V169.86H221.268V164.348ZM221.372 174.28H250.804V179.74H221.372V174.28ZM233.072 148.8H239.208V167.884H233.072V148.8ZM239.676 169.548H245.76V191.076C245.76 194.092 245.188 195.704 243.16 196.588C241.08 197.524 238.272 197.628 234.372 197.628C234.164 195.912 233.228 193.416 232.396 191.804C234.944 191.908 237.804 191.908 238.584 191.856C239.416 191.856 239.676 191.7 239.676 190.972V169.548ZM223.452 183.224L228.444 180.364C230.888 182.912 233.644 186.344 234.788 188.892L229.432 192.012C228.444 189.568 225.844 185.876 223.452 183.224ZM206.968 152.024H220.384V187.592H206.968V182.028H214.56V157.588H206.968V152.024ZM207.28 166.792H217.368V172.252H207.28V166.792ZM204.056 152.024H209.828V192.22H204.056V152.024Z" fill="#DE0020"/>
<path d="M156.736 151.972H193.032V197.004H186.324V158.264H163.184V197.056H156.736V151.972ZM161.156 169.444H189.132V175.632H161.156V169.444ZM161.104 187.384H189.132V193.676H161.104V187.384Z" fill="#DE0020"/>
<path d="M127.356 149.216H133.544V160.084H127.356V149.216ZM129.748 170.744H135.728V193.208H129.748V170.744ZM115.812 150.672H121.48V156.86H139.836V150.672H145.868V162.112H115.812V150.672ZM119.556 161.696L125.484 163.412C122.884 169.496 118.62 175.632 114.408 179.48C113.368 178.336 111.08 176.1 109.728 175.112C113.784 171.94 117.424 166.844 119.556 161.696ZM117.268 167.26H146.336V172.096H123.248V197.576H117.268V167.26ZM131.828 162.008L138.276 163.464C136.82 166.324 135.312 169.236 134.116 171.16L129.332 169.808C130.268 167.572 131.308 164.348 131.828 162.008ZM120.544 175.216H144.932V179.74H120.544V175.216ZM120.544 183.016H144.932V187.488H120.544V183.016ZM120.492 190.816H147.012V195.704H120.492V190.816ZM109.104 149.06L114.98 150.88C111.6 159.772 106.192 169.132 100.524 175.06C99.9517 173.552 98.2877 170.12 97.1957 168.612C101.928 163.88 106.452 156.496 109.104 149.06ZM104.06 163.412L109.988 157.484L110.04 157.536V197.628H104.06V163.412Z" fill="#DE0020"/>
<path d="M58.1437 171.992H83.3637V176.932H58.1437V171.992ZM57.3637 180.884H84.1957V185.98H57.3637V180.884ZM72.9637 173.552H78.4237V196.744H72.9637V173.552ZM62.8237 173.76H68.1277V183.744C68.1277 187.072 66.7237 193.936 61.2637 197.68C60.4317 196.588 58.5597 194.924 57.2597 194.092C61.6797 191.388 62.8237 186.344 62.8237 183.692V173.76ZM51.9557 157.952H65.0597V162.008H51.9557V157.952ZM76.0837 157.952H89.2397V162.008H76.0837V157.952ZM86.7957 150.828H92.9317V190.452C92.9317 193.572 92.3597 195.34 90.4877 196.38C88.5637 197.42 85.8597 197.576 81.8557 197.524C81.6997 195.86 80.8677 192.948 80.0357 191.336C82.3237 191.44 84.9237 191.44 85.7037 191.44C86.5357 191.44 86.7957 191.128 86.7957 190.348V150.828ZM52.5277 150.828H69.0117V169.34H52.5277V164.868H63.1357V155.3H52.5277V150.828ZM89.9677 150.828V155.3H78.3197V164.972H89.9677V169.444H72.3917V150.828H89.9677ZM48.8357 150.828H54.9717V197.68H48.8357V150.828Z" fill="#DE0020"/>
<path d="M5.59198 193L1.79598 189.152L16.2 174.644L1.69198 160.084L5.53998 156.184L20.1 170.692L34.712 156.236L38.612 160.032L24 174.644L38.404 189.256L34.608 193.104L20.1 178.544L5.59198 193ZM4.60398 178.596C3.52931 178.596 2.59331 178.301 1.79598 177.712C0.998642 177.123 0.599976 176.117 0.599976 174.696C0.599976 173.275 0.998642 172.269 1.79598 171.68C2.59331 171.056 3.52931 170.744 4.60398 170.744C5.71331 170.744 6.66664 171.056 7.46398 171.68C8.26131 172.269 8.65998 173.275 8.65998 174.696C8.65998 176.117 8.26131 177.123 7.46398 177.712C6.66664 178.301 5.71331 178.596 4.60398 178.596ZM20.1 194.196C19.164 194.196 18.4013 194.005 17.812 193.624C17.2573 193.277 16.8413 192.792 16.564 192.168C16.3213 191.544 16.2 190.868 16.2 190.14C16.2 189.412 16.3213 188.753 16.564 188.164C16.8413 187.54 17.2573 187.055 17.812 186.708C18.4013 186.327 19.164 186.136 20.1 186.136C21.036 186.136 21.7986 186.327 22.388 186.708C22.9773 187.055 23.3933 187.54 23.636 188.164C23.9133 188.753 24.052 189.412 24.052 190.14C24.052 190.868 23.9133 191.544 23.636 192.168C23.3933 192.792 22.9773 193.277 22.388 193.624C21.7986 194.005 21.036 194.196 20.1 194.196ZM20.1 163.256C19.164 163.256 18.4013 163.083 17.812 162.736C17.2573 162.355 16.8413 161.852 16.564 161.228C16.3213 160.604 16.2 159.928 16.2 159.2C16.2 158.472 16.3213 157.813 16.564 157.224C16.8413 156.6 17.2573 156.115 17.812 155.768C18.4013 155.387 19.164 155.196 20.1 155.196C21.036 155.196 21.7986 155.387 22.388 155.768C22.9773 156.115 23.3933 156.6 23.636 157.224C23.9133 157.813 24.052 158.472 24.052 159.2C24.052 159.928 23.9133 160.604 23.636 161.228C23.3933 161.852 22.9773 162.355 22.388 162.736C21.7986 163.083 21.036 163.256 20.1 163.256ZM35.544 178.596C34.4693 178.596 33.5333 178.301 32.736 177.712C31.9386 177.123 31.54 176.117 31.54 174.696C31.54 173.275 31.9386 172.269 32.736 171.68C33.5333 171.056 34.4693 170.744 35.544 170.744C36.6533 170.744 37.6066 171.056 38.404 171.68C39.2013 172.269 39.6 173.275 39.6 174.696C39.6 176.117 39.2013 177.123 38.404 177.712C37.6066 178.301 36.6533 178.596 35.544 178.596Z" fill="#DE0020"/>
<path d="M624.204 104V43.583C624.204 37.281 624.752 27.828 625.026 21.526H624.478C621.875 27.28 619.135 33.034 616.258 38.651L602.695 61.119H656.673V78.244H581.186V62.9L617.765 2.20898H645.165V104H624.204Z" fill="#4A4A4A"/>
<path d="M506.985 104V85.916H528.768V25.088H510.136V11.251C520.822 9.19598 527.809 6.59299 534.659 2.20898H551.099V85.916H569.868V104H506.985Z" fill="#4A4A4A"/>
<path d="M473.024 105.918C465.215 105.918 459.461 99.753 459.461 91.67C459.461 83.724 465.215 77.559 473.024 77.559C480.833 77.559 486.587 83.724 486.587 91.67C486.587 99.753 480.833 105.918 473.024 105.918Z" fill="#4A4A4A"/>
<path d="M373.479 104V91.259C399.92 67.284 416.634 48.515 416.634 33.308C416.634 23.718 411.428 17.964 402.523 17.964C395.262 17.964 389.645 22.759 384.576 28.239L372.383 16.046C381.973 5.63398 391.289 0.427979 405.4 0.427979C424.854 0.427979 438.143 12.895 438.143 32.075C438.143 50.159 422.936 69.613 405.948 86.464C411.154 85.779 417.867 85.231 422.662 85.231H442.801V104H373.479Z" fill="#4A4A4A"/>
<path d="M296.401 104V85.916H318.184V25.088H299.552V11.251C310.238 9.19598 317.225 6.59299 324.075 2.20898H340.515V85.916H359.284V104H296.401Z" fill="#4A4A4A"/>
<path d="M268.013 105.456C262.085 105.456 257.717 100.776 257.717 94.64C257.717 88.608 262.085 83.928 268.013 83.928C273.941 83.928 278.309 88.608 278.309 94.64C278.309 100.776 273.941 105.456 268.013 105.456Z" fill="#4A4A4A"/>
<path d="M222.918 104V58.136C222.918 53.352 223.334 46.176 223.542 41.392H223.126C221.15 45.76 219.07 50.128 216.886 54.392L206.59 71.448H247.566V84.448H190.262V72.8L218.03 26.728H238.83V104H222.918Z" fill="#4A4A4A"/>
<path d="M130.087 104V94.328C150.159 76.128 162.847 61.88 162.847 50.336C162.847 43.056 158.895 38.688 152.135 38.688C146.623 38.688 142.359 42.328 138.511 46.488L129.255 37.232C136.535 29.328 143.607 25.376 154.319 25.376C169.087 25.376 179.175 34.84 179.175 49.4C179.175 63.128 167.631 77.896 154.735 90.688C158.687 90.168 163.783 89.752 167.423 89.752H182.711V104H130.087Z" fill="#4A4A4A"/>
<path d="M94.5594 105.456C78.5434 105.456 67.7274 91.728 67.7274 65.104C67.7274 38.48 78.5434 25.376 94.5594 25.376C110.575 25.376 121.287 38.584 121.287 65.104C121.287 91.728 110.575 105.456 94.5594 105.456ZM94.5594 92.248C100.591 92.248 105.271 86.528 105.271 65.104C105.271 43.784 100.591 38.48 94.5594 38.48C88.5274 38.48 83.7434 43.784 83.7434 65.104C83.7434 86.528 88.5274 92.248 94.5594 92.248Z" fill="#4A4A4A"/>
<path d="M5.36795 104V94.328C25.44 76.128 38.128 61.88 38.128 50.336C38.128 43.056 34.176 38.688 27.416 38.688C21.904 38.688 17.64 42.328 13.792 46.488L4.53595 37.232C11.8159 29.328 18.8879 25.376 29.5999 25.376C44.368 25.376 54.456 34.84 54.456 49.4C54.456 63.128 42.912 77.896 30.0159 90.688C33.9679 90.168 39.064 89.752 42.704 89.752H57.992V104H5.36795Z" fill="#4A4A4A"/>
<path d="M780.944 105.938L774.596 103.316C780.392 93.242 783.083 81.581 783.083 70.265C783.083 59.018 780.392 47.357 774.596 37.283L780.944 34.592C787.43 45.218 791.225 56.534 791.225 70.265C791.225 84.065 787.43 95.312 780.944 105.938Z" fill="#4A4A4A"/>
<path d="M709.736 54.809H763.487V62.951H709.736V54.809ZM705.182 87.17H768.041V95.312H705.182V87.17ZM731.954 33.557H740.855V92.69H731.954V33.557Z" fill="#4A4A4A"/>
<path d="M692.146 105.938C685.591 95.312 681.796 84.065 681.796 70.265C681.796 56.534 685.591 45.218 692.146 34.592L698.425 37.283C692.629 47.357 690.007 59.018 690.007 70.265C690.007 81.581 692.629 93.242 698.425 103.316L692.146 105.938Z" fill="#4A4A4A"/>
<path d="M1131.94 105.938L1125.6 103.316C1131.39 93.242 1134.08 81.581 1134.08 70.265C1134.08 59.018 1131.39 47.357 1125.6 37.283L1131.94 34.592C1138.43 45.218 1142.23 56.534 1142.23 70.265C1142.23 84.065 1138.43 95.312 1131.94 105.938Z" fill="#4A4A4A"/>
<path d="M1063.63 37.5591H1111.8V97.3131H1102.9V45.9081H1072.19V97.3821H1063.63V37.5591ZM1069.5 60.7431H1106.62V68.9541H1069.5V60.7431ZM1069.43 84.5481H1106.62V92.8971H1069.43V84.5481Z" fill="#4A4A4A"/>
<path d="M1043.15 105.938C1036.59 95.312 1032.8 84.065 1032.8 70.265C1032.8 56.534 1036.59 45.218 1043.15 34.592L1049.43 37.283C1043.63 47.357 1041.01 59.018 1041.01 70.265C1041.01 81.581 1043.63 93.242 1049.43 103.316L1043.15 105.938Z" fill="#4A4A4A"/>
<path d="M973.971 105.904C957.787 105.904 946.635 99.7839 938.611 91.8959L949.627 76.6639C955.339 82.1039 962.411 86.3199 970.435 86.3199C980.227 86.3199 986.347 81.0159 986.347 70.5439C986.347 60.3439 980.227 54.9039 971.523 54.9039C965.947 54.9039 963.227 55.9919 957.243 59.7999L946.635 52.8639L949.219 2.67993H1006.07V22.9439H970.027L968.531 40.0799C972.203 38.5839 975.195 38.0399 979.003 38.0399C996.139 38.0399 1010.56 48.1039 1010.56 69.9999C1010.56 92.7119 993.419 105.904 973.971 105.904Z" fill="#4A4A4A"/>
<path d="M862.944 104V84.4159H884.432V26.8879H865.8V11.9279C876.68 9.88793 883.752 7.16794 890.824 2.67993H908.64V84.4159H926.864V104H862.944Z" fill="#4A4A4A"/>
<path d="M808.528 72.312V58.032H845.792V72.312H808.528Z" fill="#4A4A4A"/>
<path fill-rule="evenodd" clip-rule="evenodd" d="M1153 67L0.999968 68.2126L0.993652 62.2126L1152.99 61L1153 67Z" fill="black"/>
</svg>
