<?xml version="1.0" encoding="UTF-8"?>
<svg width="1340px" height="124px" viewBox="0 0 1340 124" version="1.1" xmlns="http://www.w3.org/2000/svg" xmlns:xlink="http://www.w3.org/1999/xlink">
    <!-- Generator: Sketch 46.1 (44463) - http://www.bohemiancoding.com/sketch -->
    <title>event-date-ver4</title>
    <desc>Created with Sketch.</desc>
    <defs></defs>
    <g id="Page-1" stroke="none" stroke-width="1" fill="none" fill-rule="evenodd">
        <g id="event-date-ver4" transform="translate(-3.000000, -62.000000)" fill="#4A4A4A">
            <path d="M4.83,180 L64.17,180 L64.17,162.75 L48.415,162.75 C44.62,162.75 38.755,163.325 34.5,163.9 C47.61,150.675 60.26,134.46 60.26,119.74 C60.26,103.41 48.76,92.83 32.2,92.83 C20.01,92.83 12.19,97.2 3.795,106.055 L14.95,117.095 C18.975,112.725 23.575,108.815 29.44,108.815 C36.225,108.815 40.595,113.07 40.595,120.89 C40.595,133.31 26.22,148.835 4.83,168.27 L4.83,180 Z M107.550556,181.61 C89.4955558,181.61 77.3055558,166.2 77.3055558,136.76 C77.3055558,107.32 89.4955558,92.83 107.550556,92.83 C125.605556,92.83 137.910556,107.55 137.910556,136.76 C137.910556,166.2 125.605556,181.61 107.550556,181.61 Z M107.550556,165.74 C113.645556,165.74 118.590556,160.22 118.590556,136.76 C118.590556,113.415 113.645556,108.585 107.550556,108.585 C101.455556,108.585 96.6255558,113.415 96.6255558,136.76 C96.6255558,160.22 101.455556,165.74 107.550556,165.74 Z M154.151112,180 L208.201112,180 L208.201112,163.44 L192.791112,163.44 L192.791112,94.44 L177.726112,94.44 C171.746112,98.12 165.766112,100.42 156.566112,102.145 L156.566112,114.795 L172.321112,114.795 L172.321112,163.44 L154.151112,163.44 L154.151112,180 Z M238.356667,180 L258.941667,180 C260.436667,146.535 262.506667,130.435 282.286667,106.86 L282.286667,94.44 L223.636667,94.44 L223.636667,111.46 L260.436667,111.46 C244.336667,133.77 239.966667,151.825 238.356667,180 Z M310.602223,181.61 C317.617223,181.61 322.792223,175.975 322.792223,168.845 C322.792223,161.83 317.617223,156.195 310.602223,156.195 C303.472223,156.195 298.412223,161.83 298.412223,168.845 C298.412223,175.975 303.472223,181.61 310.602223,181.61 Z M345.372779,180 L418.222779,180 L418.222779,157.68 L397.452779,157.68 L397.452779,64.68 L377.147779,64.68 C369.087779,69.64 361.027779,72.74 348.627779,75.065 L348.627779,92.115 L369.862779,92.115 L369.862779,157.68 L345.372779,157.68 L345.372779,180 Z M442.323335,180 L515.173335,180 L515.173335,157.68 L494.403335,157.68 L494.403335,64.68 L474.098335,64.68 C466.038335,69.64 457.978335,72.74 445.578335,75.065 L445.578335,92.115 L466.813335,92.115 L466.813335,157.68 L442.323335,157.68 L442.323335,180 Z M554.463891,182.17 C563.918891,182.17 570.893891,174.575 570.893891,164.965 C570.893891,155.51 563.918891,147.915 554.463891,147.915 C544.853891,147.915 538.033891,155.51 538.033891,164.965 C538.033891,174.575 544.853891,182.17 554.463891,182.17 Z M596.234447,180 L669.084447,180 L669.084447,157.68 L648.314447,157.68 L648.314447,64.68 L628.009447,64.68 C619.949447,69.64 611.889447,72.74 599.489447,75.065 L599.489447,92.115 L620.724447,92.115 L620.724447,157.68 L596.234447,157.68 L596.234447,180 Z M693.185002,180 L766.035002,180 L766.035002,157.68 L745.265002,157.68 L745.265002,64.68 L724.960002,64.68 C716.900002,69.64 708.840002,72.74 696.440002,75.065 L696.440002,92.115 L717.675002,92.115 L717.675002,157.68 L693.185002,157.68 L693.185002,180 Z M953.240002,144.815 L997.105002,144.815 L997.105002,125.44 L953.240002,125.44 L953.240002,144.815 Z M1019.50056,180 L1092.35056,180 L1092.35056,157.68 L1071.58056,157.68 L1071.58056,64.68 L1051.27556,64.68 C1043.21556,69.64 1035.15556,72.74 1022.75556,75.065 L1022.75556,92.115 L1043.99056,92.115 L1043.99056,157.68 L1019.50056,157.68 L1019.50056,180 Z M1110.87111,180 L1190.85111,180 L1190.85111,156.75 L1169.61611,156.75 C1164.50111,156.75 1156.59611,157.525 1150.86111,158.3 C1168.53111,140.475 1185.58111,118.62 1185.58111,98.78 C1185.58111,76.77 1170.08111,62.51 1147.76111,62.51 C1131.33111,62.51 1120.79111,68.4 1109.47611,80.335 L1124.51111,95.215 C1129.93611,89.325 1136.13611,84.055 1144.04111,84.055 C1153.18611,84.055 1159.07611,89.79 1159.07611,100.33 C1159.07611,117.07 1139.70111,137.995 1110.87111,164.19 L1110.87111,180 Z" id="2017.11.11-12"></path>
            <path d="M805.72,185.16 L813.08,182.04 C806.36,170.36 803.32,156.92 803.32,143.72 C803.32,130.68 806.36,117.16 813.08,105.48 L805.72,102.36 C798.2,114.68 793.8,127.8 793.8,143.72 C793.8,159.8 798.2,172.76 805.72,185.16 Z M864.057778,163.24 L864.057778,135.4 L890.137778,135.4 L890.137778,125.96 L864.057778,125.96 L864.057778,101.4 L853.817778,101.4 L853.817778,125.96 L828.137778,125.96 L828.137778,135.4 L853.817778,135.4 L853.817778,163.24 L822.937778,163.24 L822.937778,172.6 L895.417778,172.6 L895.417778,163.24 L864.057778,163.24 Z M912.235556,185.16 C919.835556,172.76 924.235556,159.8 924.235556,143.72 C924.235556,127.8 919.835556,114.68 912.235556,102.36 L904.955556,105.48 C911.675556,117.16 914.715556,130.68 914.715556,143.72 C914.715556,156.92 911.675556,170.36 904.955556,182.04 L912.235556,185.16 Z" id="(土)"></path>
            <path d="M1223.72,185.16 L1231.08,182.04 C1224.36,170.36 1221.32,156.92 1221.32,143.72 C1221.32,130.68 1224.36,117.16 1231.08,105.48 L1223.72,102.36 C1216.2,114.68 1211.8,127.8 1211.8,143.72 C1211.8,159.8 1216.2,172.76 1223.72,185.16 Z M1259.25778,160.2 L1294.77778,160.2 L1294.77778,142.28 L1259.25778,142.28 L1259.25778,160.2 Z M1294.77778,115.64 L1259.25778,115.64 L1259.25778,132.84 L1294.77778,132.84 L1294.77778,115.64 Z M1249.41778,106.04 L1305.01778,106.04 L1305.01778,174.84 L1294.77778,174.84 L1294.77778,169.8 L1259.25778,169.8 L1259.25778,175 L1249.41778,175 L1249.41778,106.04 Z M1330.23556,185.16 C1337.83556,172.76 1342.23556,159.8 1342.23556,143.72 C1342.23556,127.8 1337.83556,114.68 1330.23556,102.36 L1322.95556,105.48 C1329.67556,117.16 1332.71556,130.68 1332.71556,143.72 C1332.71556,156.92 1329.67556,170.36 1322.95556,182.04 L1330.23556,185.16 Z" id="(日)"></path>
        </g>
    </g>
</svg>