<?xml version="1.0" encoding="UTF-8"?>
<svg width="1338px" height="128px" viewBox="0 0 1338 128" version="1.1" xmlns="http://www.w3.org/2000/svg" xmlns:xlink="http://www.w3.org/1999/xlink">
    <!-- Generator: Sketch 43.2 (39069) - http://www.bohemiancoding.com/sketch -->
    <title>日付</title>
    <desc>Created with Sketch.</desc>
    <defs></defs>
    <g id="Page-1" stroke="none" stroke-width="1" fill="none" fill-rule="evenodd">
        <g id="日付" transform="translate(-1.000000, 0.000000)" fill="#484848">
            <path d="M2.04,122 L63.96,122 L63.96,104 L47.52,104 C43.56,104 37.44,104.6 33,105.2 C46.68,91.4 59.88,74.48 59.88,59.12 C59.88,42.08 47.88,31.04 30.6,31.04 C17.88,31.04 9.72,35.6 0.96,44.84 L12.6,56.36 C16.8,51.8 21.6,47.72 27.72,47.72 C34.8,47.72 39.36,52.16 39.36,60.32 C39.36,73.28 24.36,89.48 2.04,109.76 L2.04,122 Z M106.56,123.68 C87.72,123.68 75,107.6 75,76.88 C75,46.16 87.72,31.04 106.56,31.04 C125.4,31.04 138.24,46.4 138.24,76.88 C138.24,107.6 125.4,123.68 106.56,123.68 Z M106.56,107.12 C112.92,107.12 118.08,101.36 118.08,76.88 C118.08,52.52 112.92,47.48 106.56,47.48 C100.2,47.48 95.16,52.52 95.16,76.88 C95.16,101.36 100.2,107.12 106.56,107.12 Z M152.52,122 L208.92,122 L208.92,104.72 L192.84,104.72 L192.84,32.72 L177.12,32.72 C170.88,36.56 164.64,38.96 155.04,40.76 L155.04,53.96 L171.48,53.96 L171.48,104.72 L152.52,104.72 L152.52,122 Z M237.72,122 L259.2,122 C260.76,87.08 262.92,70.28 283.56,45.68 L283.56,32.72 L222.36,32.72 L222.36,50.48 L260.76,50.48 C243.96,73.76 239.4,92.6 237.72,122 Z M310.44,123.68 C317.76,123.68 323.16,117.8 323.16,110.36 C323.16,103.04 317.76,97.16 310.44,97.16 C303,97.16 297.72,103.04 297.72,110.36 C297.72,117.8 303,123.68 310.44,123.68 Z M380.08,124.24 C354.96,124.24 338,102.8 338,61.84 C338,20.88 354.96,0.72 380.08,0.72 C405.2,0.72 422.32,21.2 422.32,61.84 C422.32,102.8 405.2,124.24 380.08,124.24 Z M380.08,102.16 C388.56,102.16 395.44,94.48 395.44,61.84 C395.44,29.36 388.56,22.64 380.08,22.64 C371.6,22.64 364.88,29.36 364.88,61.84 C364.88,94.48 371.6,102.16 380.08,102.16 Z M477.36,124.24 C454,124.24 436.56,111.28 436.56,92.4 C436.56,77.52 445.04,68.24 456.08,62.32 L456.08,61.52 C446.8,54.64 440.56,45.52 440.56,32.88 C440.56,13.04 456.24,0.72 478.32,0.72 C499.76,0.72 514,13.2 514,32.56 C514,43.92 507.12,53.36 498.96,58.96 L498.96,59.76 C510.32,65.68 518.96,75.6 518.96,91.92 C518.96,110.32 502.32,124.24 477.36,124.24 Z M484.56,52.08 C489.04,46.64 490.96,40.56 490.96,34.48 C490.96,25.84 486,20.4 477.52,20.4 C471.12,20.4 465.52,24.4 465.52,32.88 C465.52,42.32 472.88,47.44 484.56,52.08 Z M478,104.4 C486.16,104.4 492.56,100.24 492.56,90.8 C492.56,80.4 483.44,75.92 468.88,69.68 C464.08,74.32 460.88,81.52 460.88,89.04 C460.88,98.8 468.72,104.4 478,104.4 Z M554.48,124.24 C564.24,124.24 571.44,116.4 571.44,106.48 C571.44,96.72 564.24,88.88 554.48,88.88 C544.56,88.88 537.52,96.72 537.52,106.48 C537.52,116.4 544.56,124.24 554.48,124.24 Z M631.12,124.24 C606,124.24 589.04,102.8 589.04,61.84 C589.04,20.88 606,0.72 631.12,0.72 C656.24,0.72 673.36,21.2 673.36,61.84 C673.36,102.8 656.24,124.24 631.12,124.24 Z M631.12,102.16 C639.6,102.16 646.48,94.48 646.48,61.84 C646.48,29.36 639.6,22.64 631.12,22.64 C622.64,22.64 615.92,29.36 615.92,61.84 C615.92,94.48 622.64,102.16 631.12,102.16 Z M725.52,124.24 C748.4,124.24 768.56,108.72 768.56,82 C768.56,56.24 751.6,44.4 731.44,44.4 C726.96,44.4 723.44,45.04 719.12,46.8 L720.88,26.64 L763.28,26.64 L763.28,2.96 L696.4,2.96 L693.36,61.84 L705.84,70 C712.88,65.52 716.08,64.24 722.64,64.24 C732.88,64.24 740.08,70.64 740.08,82.64 C740.08,94.96 732.88,101.2 721.36,101.2 C711.92,101.2 703.6,96.24 696.88,89.84 L683.92,107.76 C693.36,117.04 706.48,124.24 725.52,124.24 Z M945.66,85.68 L990.94,85.68 L990.94,65.68 L945.66,65.68 L945.66,85.68 Z M1047.58,124.24 C1022.46,124.24 1005.5,102.8 1005.5,61.84 C1005.5,20.88 1022.46,0.72 1047.58,0.72 C1072.7,0.72 1089.82,21.2 1089.82,61.84 C1089.82,102.8 1072.7,124.24 1047.58,124.24 Z M1047.58,102.16 C1056.06,102.16 1062.94,94.48 1062.94,61.84 C1062.94,29.36 1056.06,22.64 1047.58,22.64 C1039.1,22.64 1032.38,29.36 1032.38,61.84 C1032.38,94.48 1039.1,102.16 1047.58,102.16 Z M1147.58,102.96 C1155.1,102.96 1161.34,97.36 1161.34,83.92 C1161.34,70.8 1154.94,66.48 1147.1,66.48 C1141.18,66.48 1135.1,69.36 1130.3,77.2 C1132.7,97.04 1140.06,102.96 1147.58,102.96 Z M1185.82,14.96 L1170.78,31.76 C1166.94,27.6 1159.58,23.44 1153.02,23.44 C1140.7,23.44 1130.94,32.24 1129.82,58.16 C1135.74,50.64 1145.82,46.48 1152.54,46.48 C1172.38,46.48 1187.42,58 1187.42,83.92 C1187.42,109.2 1169.5,124.24 1148.22,124.24 C1125.82,124.24 1103.74,106.8 1103.74,63.44 C1103.74,20.4 1126.46,0.72 1151.1,0.72 C1166.78,0.72 1178.3,7.28 1185.82,14.96 Z" id="2017.08.05--06"></path>
            <path d="M1223.72,126.16 L1231.08,123.04 C1224.36,111.36 1221.32,97.92 1221.32,84.72 C1221.32,71.68 1224.36,58.16 1231.08,46.48 L1223.72,43.36 C1216.2,55.68 1211.8,68.8 1211.8,84.72 C1211.8,100.8 1216.2,113.76 1223.72,126.16 Z M1257.48,101.2 L1293,101.2 L1293,83.28 L1257.48,83.28 L1257.48,101.2 Z M1293,56.64 L1257.48,56.64 L1257.48,73.84 L1293,73.84 L1293,56.64 Z M1247.64,47.04 L1303.24,47.04 L1303.24,115.84 L1293,115.84 L1293,110.8 L1257.48,110.8 L1257.48,116 L1247.64,116 L1247.64,47.04 Z M1326.68,126.16 C1334.28,113.76 1338.68,100.8 1338.68,84.72 C1338.68,68.8 1334.28,55.68 1326.68,43.36 L1319.4,46.48 C1326.12,58.16 1329.16,71.68 1329.16,84.72 C1329.16,97.92 1326.12,111.36 1319.4,123.04 L1326.68,126.16 Z" id="(日)"></path>
            <path d="M802.72,127.16 L810.08,124.04 C803.36,112.36 800.32,98.92 800.32,85.72 C800.32,72.68 803.36,59.16 810.08,47.48 L802.72,44.36 C795.2,56.68 790.8,69.8 790.8,85.72 C790.8,101.8 795.2,114.76 802.72,127.16 Z M859.28,105.24 L859.28,77.4 L885.36,77.4 L885.36,67.96 L859.28,67.96 L859.28,43.4 L849.04,43.4 L849.04,67.96 L823.36,67.96 L823.36,77.4 L849.04,77.4 L849.04,105.24 L818.16,105.24 L818.16,114.6 L890.64,114.6 L890.64,105.24 L859.28,105.24 Z M905.68,127.16 C913.28,114.76 917.68,101.8 917.68,85.72 C917.68,69.8 913.28,56.68 905.68,44.36 L898.4,47.48 C905.12,59.16 908.16,72.68 908.16,85.72 C908.16,98.92 905.12,112.36 898.4,124.04 L905.68,127.16 Z" id="(土)"></path>
        </g>
    </g>
</svg>