<svg width="181" height="181" viewBox="0 0 181 181" fill="none" xmlns="http://www.w3.org/2000/svg">
<path d="M136.404 106.994C136.404 115.349 136.404 123.704 136.404 132.059C136.404 135.624 136.404 139.189 136.404 142.753C136.404 144.816 136.509 146.928 136.236 148.976C136.329 148.302 136.422 147.627 136.516 146.952C136.298 148.431 135.903 149.861 135.329 151.241C135.589 150.621 135.848 150.002 136.107 149.382C135.528 150.724 134.797 151.978 133.916 153.143C134.324 152.609 134.731 152.075 135.139 151.54C134.248 152.687 133.234 153.713 132.099 154.618C132.637 154.2 133.175 153.782 133.713 153.363C132.497 154.307 131.182 155.084 129.768 155.693C130.419 155.421 131.069 155.15 131.72 154.879C130.264 155.483 128.753 155.888 127.19 156.096C127.889 156.006 128.588 155.916 129.288 155.826C127.439 156.046 125.542 155.962 123.683 155.962C120.262 155.962 116.841 155.962 113.421 155.962C102.764 155.962 92.1074 155.962 81.451 155.962C70.8097 155.962 60.1685 155.962 49.5273 155.962C46.1255 155.962 42.7238 155.962 39.3219 155.962C37.4062 155.962 35.4537 156.047 33.5514 155.794C34.2266 155.887 34.9017 155.981 35.5768 156.074C34.0969 155.856 32.6658 155.462 31.2841 154.889C31.9045 155.148 32.5247 155.407 33.145 155.666C31.802 155.088 30.5473 154.357 29.3807 153.477C29.9154 153.884 30.4503 154.291 30.985 154.698C29.8377 153.808 28.8109 152.795 27.9049 151.661C28.3234 152.198 28.7419 152.736 29.1604 153.273C28.2163 152.059 27.4382 150.744 26.829 149.332C27.1006 149.982 27.3721 150.632 27.6437 151.283C27.0395 149.828 26.6338 148.317 26.4254 146.756C26.5155 147.455 26.6057 148.153 26.6958 148.852C26.4755 147.005 26.5591 145.11 26.5591 143.252C26.5591 139.834 26.5591 136.417 26.5591 132.999C26.5591 122.351 26.5591 111.704 26.5591 101.056C26.5591 90.4242 26.5591 79.7923 26.5591 69.1601C26.5591 65.7611 26.5591 62.3624 26.5591 58.9635C26.5591 57.0494 26.4738 55.0986 26.7273 53.1978C26.6339 53.8725 26.5405 54.547 26.4469 55.2217C26.6651 53.7431 27.0602 52.313 27.6336 50.9327C27.3742 51.5524 27.115 52.1723 26.8556 52.7919C27.4343 51.4501 28.1653 50.1964 29.0468 49.0309C28.6394 49.5651 28.2317 50.0996 27.8243 50.6338C28.7151 49.4876 29.7286 48.4615 30.864 47.5564C30.326 47.9745 29.788 48.3927 29.2501 48.8108C30.4659 47.8677 31.7815 47.0901 33.1951 46.4814C32.5444 46.7528 31.8936 47.0241 31.2429 47.2955C32.6991 46.6917 34.2105 46.2863 35.7732 46.0781C35.074 46.1682 34.3745 46.2583 33.6753 46.3483C36.7124 45.9867 39.8824 46.2118 42.9311 46.2118C48.4463 46.2118 53.9616 46.2118 59.4768 46.2118C64.6815 46.2118 69.886 46.2118 75.0907 46.2118C79.387 46.2118 83.007 42.7009 83.0356 38.3871C83.064 34.116 79.5009 30.449 75.2042 30.449C66.8196 30.449 58.4347 30.449 50.0499 30.449C45.7748 30.449 41.4996 30.449 37.2245 30.449C35.0423 30.449 32.9147 30.6204 30.7466 31.0016C28.2422 31.4418 25.7645 32.484 23.55 33.6956C21.373 34.8866 19.3338 36.5186 17.6392 38.3267C13.0446 43.2299 10.783 49.5981 10.783 56.2627C10.783 58.654 10.783 61.0454 10.783 63.437C10.783 73.1552 10.783 82.8734 10.783 92.5918C10.783 103.793 10.783 114.995 10.783 126.196C10.783 132.765 10.783 139.333 10.783 145.901C10.783 147.642 10.9903 149.337 11.2218 151.072C11.5611 153.615 12.5776 156.082 13.7088 158.359C14.8141 160.583 16.437 162.642 18.1739 164.4C23.0037 169.29 29.7166 171.725 36.5158 171.725C43.0895 171.725 49.6635 171.725 56.2372 171.725C67.4484 171.725 78.6595 171.725 89.8708 171.725C99.5974 171.725 109.324 171.725 119.051 171.725C121.444 171.725 123.837 171.725 126.231 171.725C127.136 171.725 128.033 171.711 128.936 171.617C130.501 171.452 132.075 171.26 133.6 170.86C135.175 170.446 136.703 169.76 138.179 169.101C140.457 168.083 142.527 166.48 144.356 164.814C147.993 161.501 150.699 156.645 151.618 151.819C152.025 149.683 152.181 147.583 152.181 145.429C152.181 141.179 152.181 136.929 152.181 132.679C152.181 124.158 152.181 115.637 152.181 107.117C152.181 107.113 152.181 107.11 152.181 107.107C152.181 102.815 148.667 99.1978 144.349 99.1692C140.074 99.1409 136.404 102.701 136.404 106.994Z" fill="black"/>
<path d="M98.4405 29.3161C104.979 29.322 111.517 29.328 118.055 29.3341C129.032 29.3443 140.008 29.3542 150.984 29.3644C154.371 29.3675 157.758 29.3705 161.145 29.3737C165.442 29.3775 169.062 25.8599 169.09 21.549C169.119 17.2749 165.556 13.6147 161.259 13.6109C154.721 13.6049 148.183 13.599 141.644 13.5929C130.668 13.5827 119.692 13.5725 108.716 13.5626C105.328 13.5594 101.941 13.5564 98.5542 13.5533C94.2579 13.5494 90.6379 17.0671 90.6093 21.3779C90.5809 25.6519 94.144 29.312 98.4405 29.3161Z" fill="black"/>
<path d="M169.033 84.1432C169.039 77.6104 169.045 71.0778 169.051 64.5451C169.061 53.5782 169.071 42.6112 169.081 31.6441C169.085 28.2599 169.087 24.8757 169.091 21.4915C169.095 17.1988 165.574 13.5819 161.259 13.5533C156.982 13.525 153.318 17.0852 153.314 21.378C153.308 27.9107 153.302 34.4433 153.296 40.976C153.286 51.9429 153.276 62.91 153.266 73.877C153.262 77.2613 153.259 80.6455 153.256 84.0297C153.252 88.3223 156.773 91.9393 161.088 91.9678C165.365 91.9962 169.029 88.436 169.033 84.1432Z" fill="black"/>
<path d="M78.1351 115.494C80.8331 112.801 83.531 110.108 86.229 107.415C92.7916 100.864 99.3541 94.313 105.917 87.762C114.047 79.6462 122.177 71.5305 130.307 63.4148C137.708 56.027 145.109 48.6393 152.51 41.2515C156.885 36.8846 161.259 32.5177 165.634 28.1508C166.026 27.7596 166.418 27.3686 166.81 26.9774C169.846 23.9464 169.794 18.836 166.75 15.8323C163.681 12.8042 158.637 12.8552 155.595 15.892C152.897 18.5851 150.199 21.2784 147.501 23.9714C140.939 30.5224 134.376 37.0732 127.814 43.6241C119.683 51.74 111.553 59.8557 103.423 67.9713C96.022 75.3591 88.6211 82.7469 81.2201 90.1347C76.8454 94.5016 72.4707 98.8685 68.0959 103.236C67.704 103.627 67.3123 104.018 66.9205 104.409C63.884 107.44 63.9357 112.55 66.9802 115.554C70.0496 118.582 75.0929 118.531 78.1351 115.494Z" fill="black"/>
</svg>
